<?xml version="1.0" standalone="no"?>
<!DOCTYPE svg PUBLIC "-//W3C//DTD SVG 1.1//EN" "http://www.w3.org/Graphics/SVG/1.1/DTD/svg11.dtd" >
<svg xmlns="http://www.w3.org/2000/svg">
<metadata></metadata>
<defs>
<font id="titilliumbold" horiz-adv-x="1146" >
<font-face units-per-em="2048" ascent="1536" descent="-512" />
<missing-glyph horiz-adv-x="450" />
<glyph horiz-adv-x="0" />
<glyph horiz-adv-x="682" />
<glyph unicode=" "  horiz-adv-x="450" />
<glyph unicode="&#x09;" horiz-adv-x="450" />
<glyph unicode="&#xa0;" horiz-adv-x="450" />
<glyph unicode="!" horiz-adv-x="544" d="M152 0v287h239v-287h-239zM154 1403h237l-20 -909h-197z" />
<glyph unicode="&#x22;" horiz-adv-x="808" d="M123 1403h217l-12 -475h-197zM471 1403h215l-12 -475h-195z" />
<glyph unicode="#" d="M41 328v186h209v311h-209v187h209v346h194v-346h258v346h195v-346h209v-187h-209v-311h209v-186h-209v-328h-195v328h-258v-328h-194v328h-209zM444 514h258v311h-258v-311z" />
<glyph unicode="$" d="M121 991q0 195 119 289t331 94h37l35 275h131l-37 -285q60 -6 125.5 -15.5t101.5 -15.5l35 -6l-18 -176q-145 17 -266 25l-51 -396q105 -30 170.5 -60t111.5 -73.5t65 -102t19 -143.5q0 -213 -121.5 -318.5t-330.5 -105.5h-17l-29 -237q-131 6 -131 14l29 232 q-65 6 -139 17.5t-115 19.5l-41 8l23 176q162 -23 297 -31l55 424q-106 29 -176 60.5t-119.5 77.5t-71.5 107t-22 146zM340 1006q0 -76 42 -115.5t155 -75.5l47 367q-244 -3 -244 -176zM586 172q223 9 223 217q0 70 -37.5 108.5t-134.5 67.5z" />
<glyph unicode="%" d="M41 1083q0 146 61.5 218.5t176.5 72.5q235 0 235 -291q0 -147 -61.5 -221t-173.5 -74q-114 0 -176 74t-62 221zM209 1083q0 -81 15.5 -118t54.5 -37t54 36.5t15 118.5t-15 118t-54 36t-54.5 -36t-15.5 -118zM283 -12l454 1427l127 -43l-454 -1425zM633 272 q0 146 60.5 218.5t174.5 72.5q115 0 176.5 -73t61.5 -218q0 -147 -62 -221t-176 -74q-112 0 -173.5 74t-61.5 221zM799 272q0 -82 15 -119.5t54 -37.5q40 0 55 37t15 120q0 81 -15 116.5t-55 35.5q-39 0 -54 -35.5t-15 -116.5z" />
<glyph unicode="&#x26;" horiz-adv-x="1425" d="M78 408q0 169 72 262.5t231 152.5q-80 93 -104.5 156.5t-24.5 163.5q0 141 105.5 223t287.5 82q191 0 291 -83.5t100 -238.5q0 -94 -32 -162.5t-92.5 -121t-172.5 -117.5l250 -248q13 40 28.5 135t18.5 158l215 -4q-12 -108 -40.5 -228t-59.5 -192l244 -223l-127 -146 l-232 201q-68 -94 -180.5 -147.5t-247.5 -53.5q-148 0 -252 29t-164.5 86.5t-87 134.5t-26.5 181zM303 426q0 -125 68 -187.5t213 -62.5q98 0 180 33.5t121 93.5l-387 387q-102 -39 -148.5 -100.5t-46.5 -163.5zM477 1098q0 -101 92 -199l45 -47q109 61 153 114.5t44 137.5 q0 80 -40.5 118t-125.5 38q-80 0 -124 -40.5t-44 -121.5z" />
<glyph unicode="'" horiz-adv-x="460" d="M125 1403h217l-14 -475h-197z" />
<glyph unicode="(" horiz-adv-x="591" d="M88 616q0 131 23.5 274t57.5 253.5t67.5 202t57.5 140.5l23 50h211q-8 -21 -21 -58.5t-46.5 -148.5t-59 -217t-46.5 -245t-21 -251t20 -243.5t48.5 -238t57 -197.5t48.5 -142l20 -51h-211q-9 16 -24.5 46t-55 125t-69.5 192t-55 237.5t-25 271.5z" />
<glyph unicode=")" horiz-adv-x="591" d="M63 -256q8 19 21 53t46.5 137t59.5 203t47 233.5t21 245.5t-20 248t-48.5 250t-57.5 212t-49 154l-20 56h211q9 -18 24.5 -51.5t55.5 -136.5t70 -206.5t55 -249t25 -276.5t-23.5 -269.5t-57.5 -241.5t-68 -187.5t-57 -129.5l-24 -44h-211z" />
<glyph unicode="*" horiz-adv-x="866" d="M94 938l219 162l-213 151l80 111l211 -154l82 252l131 -43l-80 -254h258v-131h-260l80 -250l-127 -39l-84 252l-215 -161z" />
<glyph unicode="+" d="M106 414v200h365v367h201v-367h368v-200h-368v-371h-201v371h-365z" />
<glyph unicode="," horiz-adv-x="503" d="M53 -252l99 506h245l-164 -506h-180z" />
<glyph unicode="-" horiz-adv-x="862" d="M125 451v202h612v-202h-612z" />
<glyph unicode="." horiz-adv-x="489" d="M125 0v295h240v-295h-240z" />
<glyph unicode="/" horiz-adv-x="907" d="M66 18l583 1444l197 -71l-586 -1442z" />
<glyph unicode="0" d="M61 662q0 196 33.5 334.5t101 221t159.5 119.5t218 37q127 0 219 -37t158.5 -119t99.5 -220.5t33 -335.5q0 -190 -33.5 -323.5t-100.5 -212.5t-159 -114t-217 -35q-126 0 -217.5 35t-159 113.5t-101.5 212t-34 324.5zM297 662q0 -183 31.5 -291t91 -151.5t155.5 -43.5 q95 0 153.5 43.5t89 151.5t30.5 291q0 197 -30 310t-88.5 158.5t-156.5 45.5q-73 0 -123 -24.5t-85 -83t-51.5 -158t-16.5 -248.5z" />
<glyph unicode="1" d="M180 1059l441 293h208v-1352h-227v1094l-317 -205z" />
<glyph unicode="2" d="M137 0v195l334 344q77 79 118 124.5t82 101.5t57.5 104t16.5 100q0 113 -59.5 157.5t-193.5 44.5q-64 0 -147 -9t-134 -18l-51 -9l-15 180q22 7 61 16.5t144.5 26t194.5 16.5q223 0 329.5 -93t106.5 -284q0 -101 -32 -184t-91.5 -156.5t-171.5 -177.5l-289 -280h611v-199 h-871z" />
<glyph unicode="3" d="M121 41l14 176q225 -41 397 -41q125 2 185.5 54.5t60.5 162.5q0 99 -63 150t-168 53h-273v190h273q75 0 140 62.5t65 148.5q0 93 -56 136t-180 43q-76 0 -166.5 -10t-143.5 -20l-52 -9l-19 172q21 7 58.5 18t141.5 29t195 18q249 0 353 -86.5t104 -275.5q0 -50 -12 -94.5 t-29 -74.5t-43 -58.5t-46.5 -44t-47.5 -33.5q53 -25 85 -45.5t62.5 -55t44 -85t13.5 -122.5q0 -214 -107.5 -318t-343.5 -104q-92 0 -202.5 16t-174.5 32z" />
<glyph unicode="4" d="M82 242v174l356 936h252l-377 -912h377v398h230v-398h147v-198h-147v-242h-230v242h-608z" />
<glyph unicode="5" d="M115 47l24 172q242 -41 414 -41q119 0 184.5 65.5t65.5 186.5t-58 174t-172 53q-69 0 -140 -13.5t-107 -27.5l-37 -14l-144 31l37 719h809v-201h-626l-35 -356q16 7 42.5 17.5t99 28t132.5 17.5q434 0 434 -405q0 -229 -119.5 -352.5t-338.5 -123.5q-93 0 -209 17.5 t-186 35.5z" />
<glyph unicode="6" d="M84 676q0 698 549 698q76 0 174 -12t157 -24l60 -13l-20 -178q-199 29 -371 29q-153 0 -232.5 -100.5t-81.5 -280.5l47 15q47 15 120.5 31.5t127.5 16.5q228 0 343.5 -105.5t115.5 -324.5q0 -221 -127 -336t-358 -115q-256 0 -380 182t-124 517zM317 598 q1 -126 26 -216.5t87 -148t158 -57.5q121 0 185.5 65t64.5 187q0 114 -63.5 171.5t-180.5 57.5q-57 0 -126.5 -14.5t-109.5 -29.5z" />
<glyph unicode="7" d="M150 1147v205h851v-271l-497 -1104l-213 62l481 1046v62h-622z" />
<glyph unicode="8" d="M61 344q0 72 13 126t41.5 95.5t60 70t82.5 64.5q-97 64 -135.5 132.5t-38.5 183.5q0 172 130 265t355 93t359.5 -93t134.5 -267q0 -122 -38 -185.5t-142 -128.5q52 -33 85 -61t61 -67t41 -89t13 -116q0 -85 -26.5 -152t-72.5 -111t-112 -73t-140.5 -41.5t-162.5 -12.5 q-508 0 -508 367zM305 393q0 -211 264 -211q271 0 271 215q0 76 -44.5 122.5t-127.5 72.5h-197q-166 -53 -166 -199zM328 981q0 -67 35 -113t108 -82h197q75 35 113 81.5t38 113.5q0 94 -64 141t-184 47q-243 0 -243 -188z" />
<glyph unicode="9" d="M70 924q0 210 129.5 330t353.5 120q256 0 381 -182t125 -514q0 -195 -37.5 -332.5t-111.5 -217.5t-172 -115.5t-230 -35.5q-76 0 -174 12.5t-158 24.5l-59 13l20 178q199 -29 371 -29q312 0 315 393l-48 -17q-48 -16 -123 -34t-128 -18q-221 0 -337.5 105.5t-116.5 318.5 zM305 924q0 -224 238 -224q56 0 126.5 15t112.5 30l43 15q-4 416 -272 416q-117 0 -182.5 -67.5t-65.5 -184.5z" />
<glyph unicode=":" horiz-adv-x="489" d="M125 0v295h240v-295h-240zM125 621v294h240v-294h-240z" />
<glyph unicode=";" horiz-adv-x="544" d="M74 -252h180l164 506h-246zM158 621v294h239v-294h-239z" />
<glyph unicode="&#x3c;" d="M131 422v184l840 393v-227l-602 -254l602 -266v-229z" />
<glyph unicode="=" d="M125 211v201h897v-201h-897zM125 616v201h897v-201h-897z" />
<glyph unicode="&#x3e;" d="M176 23v229l602 266l-602 254v227l840 -393v-184z" />
<glyph unicode="?" horiz-adv-x="903" d="M68 1358q21 8 57 19t128 29.5t161 18.5q216 0 316.5 -78t100.5 -253q0 -137 -34 -208.5t-144 -160.5q-98 -76 -132 -123.5t-34 -103.5v-68h-180q-5 7 -13.5 20.5t-22 55t-13.5 84.5q0 52 39 102.5t127 124.5q113 92 145.5 138.5t32.5 115.5q0 79 -50.5 117.5t-166.5 38.5 q-56 0 -132.5 -9.5t-124.5 -19.5l-48 -10zM272 0v287h238v-287h-238z" />
<glyph unicode="@" horiz-adv-x="1996" d="M90 535q0 244 65.5 427t189.5 297.5t295 171t390 56.5q453 0 673 -216.5t220 -645.5v-21q0 -140 -16.5 -244.5t-47.5 -174t-78.5 -112.5t-104.5 -61t-132 -18q-59 0 -107 12.5t-74.5 30t-45 34.5t-25.5 29l-6 13q-7 -5 -20.5 -13t-52.5 -28t-76.5 -35.5t-87.5 -28 t-91 -12.5q-86 0 -150.5 23.5t-116 79.5t-78.5 159t-27 252q0 265 90 391.5t311 126.5q38 0 90.5 -13t85.5 -25l33 -13v29h221v-377q0 -67 0.5 -113t1.5 -91.5t3 -74.5t6 -57t8.5 -43.5t12.5 -30t16 -20.5t21 -11.5t26 -6.5t32 -1q26 0 45.5 6t38 22.5t31 46.5t22.5 76.5 t14.5 114.5t4.5 158v23q0 349 -158.5 507t-511.5 158q-357 0 -538 -190.5t-181 -566.5q0 -408 167 -585t552 -177q44 0 117 4.5t125 8.5l51 5l10 -194q-188 -19 -303 -19q-188 0 -331 28.5t-260.5 95.5t-192.5 176.5t-115.5 273.5t-40.5 383zM811 508q0 -318 166 -318 q80 0 233 70q-14 82 -14 277v266q-103 31 -164 31q-132 0 -176.5 -74.5t-44.5 -251.5z" />
<glyph unicode="A" horiz-adv-x="1226" d="M41 0l346 1403h453l348 -1403h-230l-75 301h-539l-76 -301h-227zM389 502h449l-172 710h-103z" />
<glyph unicode="B" horiz-adv-x="1253" d="M162 0v1403h532q214 0 321 -87t107 -278q0 -124 -39.5 -196t-126.5 -119q98 -38 149.5 -113.5t51.5 -212.5q0 -397 -446 -397h-549zM389 197h309q113 0 169.5 46.5t56.5 166.5q0 57 -20 98.5t-54 63t-72.5 31t-83.5 9.5h-305v-415zM389 805h301q103 0 152 51.5t49 155.5 q0 100 -52 147t-157 47h-293v-401z" />
<glyph unicode="C" horiz-adv-x="1114" d="M106 700q0 158 14.5 270.5t50 202.5t96 143.5t150.5 81t216 27.5q177 0 401 -51l-8 -184q-72 13 -181 23t-181 10q-79 0 -133 -17t-91.5 -52t-58.5 -99t-30 -148t-9 -207q0 -101 5 -172.5t18.5 -133t36.5 -99.5t60 -65t87.5 -38.5t120.5 -11.5q161 0 356 31l6 -188 q-221 -46 -399 -46q-127 0 -219 30t-151.5 85.5t-94.5 147t-48.5 200.5t-13.5 260z" />
<glyph unicode="D" horiz-adv-x="1312" d="M162 0v1403h485q134 0 232 -29.5t161 -83t100.5 -139.5t52.5 -187.5t15 -238.5q0 -142 -13.5 -247t-50.5 -199t-99 -152.5t-162 -92.5t-236 -34h-485zM389 201h258q83 0 142.5 26t94.5 69t55.5 113t27 142.5t6.5 173.5q0 83 -4.5 143t-17 117.5t-35.5 95t-58.5 67t-88 43 t-122.5 13.5h-258v-1003z" />
<glyph unicode="E" horiz-adv-x="1132" d="M162 0v1403h885v-199h-658v-397h535v-197h-535v-409h658v-201h-885z" />
<glyph unicode="F" horiz-adv-x="1083" d="M162 0v1403h870v-199h-643v-473h535v-199h-535v-532h-227z" />
<glyph unicode="G" horiz-adv-x="1255" d="M102 700q0 190 27.5 322t92 224.5t171 135.5t262.5 43q96 0 215.5 -13.5t191.5 -27.5l71 -14l-9 -180q-248 33 -434 33q-86 0 -145 -17t-100 -52.5t-64 -99t-33 -147.5t-10 -207q0 -120 8.5 -201.5t30.5 -147t61.5 -102t99 -55t146.5 -18.5q62 0 131 6.5t92 12.5v342 h-174v200h400v-712q-16 -4 -89.5 -14.5t-188.5 -22t-191 -11.5q-132 0 -229.5 31.5t-161 88.5t-102 148.5t-54 200t-15.5 254.5z" />
<glyph unicode="H" horiz-adv-x="1384" d="M162 0v1403h227v-598h606v598h230v-1403h-230v606h-606v-606h-227z" />
<glyph unicode="I" horiz-adv-x="550" d="M162 0v1403h227v-1403h-227z" />
<glyph unicode="J" horiz-adv-x="606" d="M39 55q56 0 88 6t56.5 24.5t34 53.5t9.5 94v1170h226l2 -1186q0 -92 -16 -155.5t-46 -104.5t-83 -63t-115.5 -30.5t-155.5 -8.5v200z" />
<glyph unicode="K" horiz-adv-x="1193" d="M162 0v1403h227v-633l209 16l287 617h260l-346 -705l360 -698h-264l-297 586l-209 -15v-571h-227z" />
<glyph unicode="L" horiz-adv-x="972" d="M162 0v1403h227v-1200h559v-203h-786z" />
<glyph unicode="M" horiz-adv-x="1740" d="M162 0v1403h395l313 -1096l314 1096h397v-1403h-229v1151h-31l-332 -1094h-237l-332 1094h-31v-1151h-227z" />
<glyph unicode="N" horiz-adv-x="1404" d="M162 0v1403h397l426 -1202h31v1202h227v-1403h-389l-436 1204h-29v-1204h-227z" />
<glyph unicode="O" horiz-adv-x="1343" d="M100 694q0 145 17.5 256.5t58 203t106 150t163 90t227.5 31.5q162 0 273.5 -47t176 -143t92 -226.5t27.5 -314.5q0 -185 -27.5 -314t-92.5 -222t-175.5 -137t-273.5 -44q-131 0 -228.5 29.5t-163 86t-106 145.5t-57.5 199.5t-17 256.5zM336 694q0 -138 14.5 -229.5 t51.5 -159.5t103 -98.5t167 -30.5t166.5 29.5t102.5 97t51 159t14 232.5q0 110 -9 190t-31 147.5t-59.5 109t-96 64t-138.5 22.5t-138.5 -22.5t-96.5 -64t-60.5 -109t-31.5 -148t-9 -189.5z" />
<glyph unicode="P" horiz-adv-x="1210" d="M162 0v1403h514q477 0 477 -471q0 -241 -120 -368.5t-357 -127.5h-287v-436h-227zM389 633h285q246 0 246 299q0 144 -59 209t-187 65h-285v-573z" />
<glyph unicode="Q" horiz-adv-x="1343" d="M100 694q0 145 17.5 256.5t58 203t106 150t163 90t227.5 31.5q162 0 273.5 -47t176 -143t92 -226.5t27.5 -314.5q0 -245 -51.5 -396.5t-171.5 -231.5l172 -277l-211 -98l-182 299q-44 -13 -125 -13q-131 0 -228.5 29.5t-163 85.5t-106 145t-57.5 199.5t-17 257.5z M336 694q0 -111 9 -190t31 -144t60 -104t96.5 -59.5t139.5 -20.5q101 0 166.5 29.5t102.5 96.5t51 159t14 233q0 110 -9 190t-31 147.5t-59.5 109t-96 64t-138.5 22.5t-138.5 -22.5t-96.5 -64t-60.5 -109t-31.5 -148t-9 -189.5z" />
<glyph unicode="R" horiz-adv-x="1265" d="M162 0v1403h532q236 0 355.5 -108.5t119.5 -338.5q0 -298 -229 -405l231 -551h-249l-203 500h-330v-500h-227zM389 696h309q122 0 180 70.5t58 187.5q0 122 -60.5 187t-181.5 65h-305v-510z" />
<glyph unicode="S" horiz-adv-x="1112" d="M86 1028q0 205 123.5 302t343.5 97q79 0 190 -12.5t183 -24.5l71 -12l-18 -184q-287 33 -406 33q-260 0 -260 -183q0 -33 6 -57.5t23 -45t37.5 -35t60.5 -30.5t80 -28t107 -31q117 -33 188 -63.5t122 -76.5t71 -107t20 -152q0 -222 -126 -331.5t-343 -109.5 q-81 0 -195.5 14t-189.5 28l-74 14l23 182q277 -37 422 -37q254 0 254 225q0 88 -57.5 130t-221.5 81q-119 31 -196.5 63.5t-133 81t-80 113.5t-24.5 156z" />
<glyph unicode="T" horiz-adv-x="1077" d="M27 1200v203h1024v-203h-396v-1200h-229v1200h-399z" />
<glyph unicode="U" horiz-adv-x="1331" d="M150 453v950h229v-954q0 -140 71.5 -206.5t213.5 -66.5q288 0 288 273v954h230v-950q0 -248 -130 -362t-388 -114q-257 0 -385.5 114t-128.5 362z" />
<glyph unicode="V" horiz-adv-x="1216" d="M41 1403h238l278 -1202h102l279 1202h238l-345 -1403h-446z" />
<glyph unicode="W" horiz-adv-x="1865" d="M49 1403h240l200 -1206h43l267 1202h266l266 -1202h45l201 1206h240l-277 -1403h-366l-242 1124l-240 -1124h-368z" />
<glyph unicode="X" horiz-adv-x="1155" d="M27 0l417 678l-417 725h256l301 -553l305 553h239l-415 -713l415 -690h-254l-301 528l-307 -528h-239z" />
<glyph unicode="Y" horiz-adv-x="1124" d="M8 1403h256l297 -602l299 602h254l-436 -825v-578h-229v578z" />
<glyph unicode="Z" horiz-adv-x="1093" d="M86 0v217l649 946v41h-649v199h922v-219l-652 -946v-39h652v-199h-922z" />
<glyph unicode="[" horiz-adv-x="704" d="M150 -252v1786h477v-199h-252v-1388h252v-199h-477z" />
<glyph unicode="\" horiz-adv-x="964" d="M63 1372l193 86l645 -1431l-194 -82z" />
<glyph unicode="]" horiz-adv-x="704" d="M78 -53h252v1388h-252v199h477v-1786h-477v199z" />
<glyph unicode="^" d="M76 647l389 705h192l396 -705h-234l-254 488l-256 -488h-233z" />
<glyph unicode="_" horiz-adv-x="1280" d="M203 -166h876v-190h-876v190z" />
<glyph unicode="`" horiz-adv-x="520" d="M-20 1339l69 193l483 -207l-53 -145z" />
<glyph unicode="a" horiz-adv-x="1038" d="M70 303q0 156 82.5 225.5t255.5 83.5l264 23v74q0 82 -36 114.5t-114 32.5q-61 0 -157 -5t-162 -10l-66 -5l-8 157q224 54 412 54q186 0 269 -81t83 -257v-467q3 -45 24 -67t66 -28l-6 -170q-96 0 -156 16.5t-116 59.5q-18 -9 -50 -21.5t-119 -33.5t-161 -21 q-152 0 -228.5 83t-76.5 243zM293 309q0 -149 125 -149q52 0 115.5 11t100.5 23l38 11v272l-238 -22q-141 -12 -141 -146z" />
<glyph unicode="b" horiz-adv-x="1097" d="M135 2v1448h221v-465q16 7 42.5 17.5t94.5 27.5t119 17q212 0 305 -118.5t93 -402.5q0 -161 -26 -265t-87 -168t-153 -90t-234 -26q-48 0 -142 6.5t-164 12.5zM356 184q113 -8 154 -8q85 0 138 18.5t83 63.5t40.5 107t10.5 161q0 172 -46.5 247t-149.5 75 q-48 0 -105.5 -10t-90.5 -20l-34 -11v-623z" />
<glyph unicode="c" horiz-adv-x="905" d="M90 526q0 276 100 398.5t328 122.5q48 0 125 -9.5t129 -19.5l53 -10l-8 -177q-161 17 -239 17q-156 0 -209.5 -70t-53.5 -252q0 -104 10 -166.5t39.5 -106t80.5 -60.5t135 -17q35 0 94.5 4t101.5 8l43 5l6 -179q-207 -37 -311 -37q-234 0 -329 125.5t-95 423.5z" />
<glyph unicode="d" horiz-adv-x="1105" d="M88 510q0 278 103 407.5t323 129.5q72 0 234 -27v430h223v-1450h-221v53q-17 -9 -45.5 -21.5t-101 -33.5t-128.5 -21q-134 0 -217.5 50.5t-126.5 168.5t-43 314zM313 510q0 -128 24 -203t65.5 -103t107.5 -28q52 0 111.5 13t92.5 25l34 13v607q-120 20 -218 20 q-113 0 -165 -84t-52 -260z" />
<glyph unicode="e" horiz-adv-x="1040" d="M86 502q0 545 444 545q216 0 323.5 -115.5t107.5 -353.5l-15 -160h-635q2 -126 55.5 -186t178.5 -60q72 0 166.5 4.5t152.5 9.5l58 4l4 -165q-234 -48 -414 -48q-227 0 -326.5 125.5t-99.5 399.5zM309 590h432q0 151 -48.5 211.5t-162.5 60.5q-115 0 -167.5 -63 t-53.5 -209z" />
<glyph unicode="f" horiz-adv-x="708" d="M63 834v190h119v66q0 219 63.5 301t225.5 82q31 0 86.5 -5.5t94.5 -10.5l40 -5l-2 -182q-101 4 -164 4q-70 0 -96.5 -40.5t-26.5 -146.5v-63h271v-190h-271v-834h-221v834h-119z" />
<glyph unicode="g" horiz-adv-x="1075" d="M86 -180q0 74 36.5 129t119.5 119q-32 22 -50 61.5t-18 87.5q0 21 18.5 62t37.5 71l18 31q-43 26 -73 59t-52.5 97t-22.5 151q0 184 110.5 270t299.5 86q42 0 94 -6.5t84 -13.5l31 -6l317 8v-180l-170 10q56 -73 56 -168q0 -103 -26.5 -172.5t-81.5 -109t-129 -56 t-181 -16.5q-54 0 -90 8q-29 -69 -29 -96q0 -35 14.5 -50.5t59 -22t147.5 -7.5q125 -1 203.5 -15t129.5 -50t71 -93t20 -147q0 -89 -35 -154.5t-99.5 -104.5t-148.5 -58t-190 -19q-245 0 -358 64t-113 231zM305 -160q0 -71 58 -102t196 -31q126 0 187 33.5t61 107.5 q0 34 -7.5 55.5t-21 35.5t-42.5 21t-61 9.5t-87 3.5q-28 0 -78 3.5t-86 6.5l-37 3q-45 -37 -63.5 -68.5t-18.5 -77.5zM322 688q0 -94 45 -138t143 -44q102 0 146 43.5t44 138.5q0 94 -44.5 138t-145.5 44q-98 0 -143 -44.5t-45 -137.5z" />
<glyph unicode="h" horiz-adv-x="1118" d="M135 0v1450h223v-479q17 9 46 21.5t103.5 33.5t131.5 21q106 0 175.5 -29.5t108.5 -94.5t54.5 -153.5t15.5 -220.5v-549h-223v543q0 67 -4 111.5t-15 84t-31 62t-52.5 35t-79.5 12.5q-50 0 -107.5 -11t-90.5 -23l-32 -11v-803h-223z" />
<glyph unicode="i" horiz-adv-x="493" d="M135 0v1024h223v-1024h-223zM135 1198v236h223v-236h-223z" />
<glyph unicode="j" horiz-adv-x="495" d="M-84 -299q62 39 95.5 63.5t62 52.5t40 58.5t17.5 68t6 95.5v985h221v-987q0 -138 -31.5 -221.5t-103.5 -145t-219 -135.5zM137 1198v236h221v-236h-221z" />
<glyph unicode="k" horiz-adv-x="1021" d="M135 0v1450h223v-838l127 13l242 399h250l-295 -479l311 -545h-252l-249 432l-134 -14v-418h-223z" />
<glyph unicode="l" horiz-adv-x="518" d="M147 0v1450h224v-1450h-224z" />
<glyph unicode="m" horiz-adv-x="1716" d="M135 0v1024h221v-63q16 10 44 24t98.5 38t124.5 24q93 0 155 -24t105 -77q21 11 56.5 28t128.5 45t167 28q105 0 173 -28t108.5 -91.5t56.5 -153t16 -225.5v-549h-221v543q0 66 -3.5 111t-14.5 84.5t-30 62t-50 35t-76 12.5q-50 0 -108.5 -14t-91.5 -28l-33 -13 q6 -15 11 -100.5t5 -162.5v-530h-221v526q0 74 -3.5 121.5t-14 89t-30 64t-51 35t-77.5 12.5q-51 0 -106.5 -13t-85.5 -27l-30 -13v-795h-223z" />
<glyph unicode="n" horiz-adv-x="1118" d="M135 0v1024h221v-63q17 10 45.5 24t103.5 38t134 24q106 0 175.5 -29.5t108.5 -94.5t54.5 -153.5t15.5 -220.5v-549h-221v543q0 166 -35.5 235.5t-146.5 69.5q-53 0 -111 -13t-89 -27l-32 -13v-795h-223z" />
<glyph unicode="o" horiz-adv-x="1085" d="M86 518q0 262 105.5 395.5t351.5 133.5q126 0 215 -35.5t141.5 -105.5t76 -164.5t23.5 -223.5q0 -133 -22 -229t-73.5 -168t-141 -108t-219.5 -36q-129 0 -218.5 36t-141.5 108t-74.5 168t-22.5 229zM311 518q0 -94 9.5 -156t35 -108.5t71 -67t116.5 -20.5t116.5 20.5 t70.5 67t34.5 108t9.5 156.5q0 184 -50 262t-181 78q-132 0 -182 -78t-50 -262z" />
<glyph unicode="p" horiz-adv-x="1099" d="M135 -440v1464h221v-63q16 10 43 24t97 38t125 24q202 0 296.5 -124t94.5 -401q0 -158 -26.5 -263.5t-85.5 -167.5t-142 -88t-205 -26q-81 0 -195 19v-436h-223zM358 186q80 -16 181 -16q140 0 192.5 79.5t52.5 272.5q0 174 -51 250t-151 76q-48 0 -104 -14t-88 -28 l-32 -15v-605z" />
<glyph unicode="q" horiz-adv-x="1095" d="M88 498q0 160 26.5 265t88 168.5t153 89.5t230.5 26q50 0 144 -6.5t162 -12.5l69 -6v-1462h-222v479q-15 -7 -41 -17.5t-92.5 -27.5t-116.5 -17q-212 0 -306.5 119.5t-94.5 401.5zM311 498q0 -169 50.5 -245.5t154.5 -76.5q48 0 104 10t88 20l31 11v629q-98 8 -153 8 q-83 0 -137 -20t-84.5 -66t-42 -109t-11.5 -161z" />
<glyph unicode="r" horiz-adv-x="739" d="M135 0v1024h221v-123q20 13 53.5 32.5t126 59t169.5 54.5v-224q-83 -16 -169.5 -43t-131.5 -46l-46 -19v-715h-223z" />
<glyph unicode="s" horiz-adv-x="960" d="M82 727q0 84 31 146.5t85 99t121 54t146 17.5q67 0 163 -11.5t159 -22.5l63 -11l-4 -186q-242 33 -365 33q-94 0 -136 -25.5t-42 -87.5q0 -50 45.5 -72t198.5 -49q190 -33 262 -96t72 -213q0 -173 -103.5 -249.5t-302.5 -76.5q-63 0 -157.5 11.5t-157.5 23.5l-64 11 l8 186q247 -33 351 -33q111 0 157.5 27t46.5 94q0 38 -17.5 58.5t-66.5 36t-153 32.5q-74 12 -122.5 25t-93.5 35t-70 53.5t-39.5 78.5t-14.5 111z" />
<glyph unicode="t" horiz-adv-x="733" d="M51 834v190h131v297h221v-297h283v-190h-283v-451q0 -125 19 -166t94 -41l168 6l10 -178q-137 -27 -209 -27q-89 0 -145 17.5t-92.5 62.5t-51 116.5t-14.5 184.5v476h-131z" />
<glyph unicode="u" horiz-adv-x="1112" d="M125 489v535h223v-537q0 -76 3 -120.5t12.5 -86t28.5 -61.5t50.5 -31.5t79.5 -11.5q55 0 113.5 13t89.5 27l31 13v795h221v-1024h-221v63q-17 -10 -45.5 -24t-102 -38t-129.5 -24q-88 0 -149.5 19.5t-101.5 56.5t-62.5 101t-31.5 142.5t-9 192.5z" />
<glyph unicode="v" horiz-adv-x="1005" d="M39 1024h233l197 -834h66l204 834h228l-267 -1024h-397z" />
<glyph unicode="w" horiz-adv-x="1572" d="M55 1024h219l162 -834h41l195 814h229l195 -814h41l159 834h222l-218 -1024h-354l-160 702l-159 -702h-355z" />
<glyph unicode="x" horiz-adv-x="950" d="M37 0l297 514l-297 510h237l201 -354l203 354h237l-305 -504l305 -520h-237l-203 350l-201 -350h-237z" />
<glyph unicode="y" horiz-adv-x="1007" d="M41 1024h219l217 -834h55l218 834h221l-389 -1464h-220l123 440h-176z" />
<glyph unicode="z" horiz-adv-x="929" d="M84 0v199l494 626h-494v199h760v-199l-492 -626h492v-199h-760z" />
<glyph unicode="{" horiz-adv-x="731" d="M39 553v174q117 27 171 77.5t54 129.5q0 26 -7 123t-7 137q0 192 90.5 271t312.5 87l2 -188q-109 -7 -148.5 -52t-39.5 -134q0 -35 7 -131.5t7 -124.5q0 -130 -43.5 -187.5t-179.5 -93.5q70 -18 113.5 -42t68 -60.5t33 -79.5t8.5 -109q0 -30 -7 -116t-7 -123 q0 -89 38.5 -136.5t145.5 -54.5v-188q-219 7 -310 88.5t-91 265.5q0 44 7 135t7 113q0 79 -54.5 133t-170.5 86z" />
<glyph unicode="|" horiz-adv-x="516" d="M147 -440v1890h222v-1890h-222z" />
<glyph unicode="}" horiz-adv-x="731" d="M76 1364l2 188q222 -8 312.5 -87t90.5 -271q0 -40 -7 -137t-7 -123q0 -79 54 -129.5t171 -77.5v-174q-116 -32 -170.5 -86t-54.5 -133q0 -22 7 -113t7 -135q0 -184 -91 -265.5t-310 -88.5v188q107 7 145.5 54.5t38.5 136.5q0 37 -7 123t-7 116q0 66 8.5 109t33 79.5 t68 60.5t113.5 42q-136 36 -179.5 93.5t-43.5 187.5q0 28 7 124.5t7 131.5q0 89 -39.5 134t-148.5 52z" />
<glyph unicode="~" d="M131 569q5 4 14.5 11.5t37.5 26t56 32.5t66.5 25.5t71.5 11.5q59 0 212 -52.5t199 -52.5q35 0 87 21t87 42l35 21l19 -178q-5 -4 -13 -11.5t-34 -25.5t-52 -32t-63 -25.5t-70 -11.5q-60 0 -218 52t-195 52q-41 0 -95.5 -21.5t-89.5 -43.5l-34 -21z" />
<glyph unicode="&#xa1;" horiz-adv-x="507" d="M135 -379l21 909h196l21 -909h-238zM135 737v287h240v-287h-240z" />
<glyph unicode="&#xa2;" d="M190 510q0 220 94 328t275 120v222h186v-230q38 -3 83.5 -9t71.5 -11l26 -4l-6 -170q-162 10 -250 10q-138 0 -195 -59t-57 -197q0 -140 56 -196t202 -56q39 0 100.5 2.5t103.5 5.5l42 2l6 -170q-99 -20 -183 -24v-234h-184v226q-186 11 -278.5 115t-92.5 329z" />
<glyph unicode="&#xa3;" d="M158 0v190h161v492h-135v190h135v117q0 116 19.5 191.5t62.5 117.5t100 58t142 16q60 0 134 -10t119 -20l44 -11l-6 -176q-149 19 -262 19q-74 0 -103.5 -42.5t-29.5 -152.5v-107h327v-190h-327v-492h280l148 33l34 -186l-165 -37h-678z" />
<glyph unicode="&#xa5;" d="M27 1352h254l294 -484l293 484h254l-319 -547h225v-189h-330l-8 -36v-93h338v-188h-338v-299h-227v299h-344v188h344v93l-6 36h-338v189h229z" />
<glyph unicode="&#xa8;" horiz-adv-x="520" d="M-45 1243v234h213v-234h-213zM383 1243v234h213v-234h-213z" />
<glyph unicode="&#xa9;" horiz-adv-x="1318" d="M106 889q0 246 157 408.5t396 162.5q122 0 226.5 -45.5t175.5 -123t111 -182t40 -220.5q0 -161 -68 -290.5t-195.5 -205.5t-291.5 -76q-156 0 -282.5 75.5t-197.5 206.5t-71 290zM217 889q0 -193 126 -328t314 -135q191 0 318 134.5t127 328.5q0 192 -128 328.5 t-315 136.5q-188 0 -315 -136t-127 -329zM420 895q0 175 59.5 249.5t198.5 74.5q42 0 82.5 -6.5t59.5 -13.5l20 -7l-13 -148q-73 15 -139 15q-56 0 -75 -36t-19 -128q0 -94 20 -135t74 -41q28 0 62.5 3t55.5 6l21 3l13 -141q-66 -33 -168 -33q-137 0 -194.5 75t-57.5 263z " />
<glyph unicode="&#xab;" horiz-adv-x="1175" d="M86 418v166l428 317v-225l-238 -170l238 -193v-227zM625 418v166l428 317v-225l-238 -170l238 -193v-227z" />
<glyph unicode="&#xad;" horiz-adv-x="862" d="M125 451v202h612v-202h-612z" />
<glyph unicode="&#xae;" horiz-adv-x="1318" d="M106 889q0 246 157 408.5t396 162.5q122 0 226.5 -45.5t175.5 -123t111 -182t40 -220.5q0 -161 -68 -290.5t-195 -205.5t-290 -76q-157 0 -284 75.5t-198 206.5t-71 290zM217 889q0 -192 128 -327.5t314 -135.5q190 0 316.5 134.5t126.5 328.5q0 192 -128 328.5 t-315 136.5q-188 0 -315 -136t-127 -329zM422 571v633h256q233 0 233 -205q0 -79 -19.5 -122.5t-70.5 -75.5l99 -230h-172l-76 203h-86v-203h-164zM584 897h84q86 0 86 90q0 92 -97 92h-73v-182z" />
<glyph unicode="&#xaf;" horiz-adv-x="520" d="M-18 1247v168h577v-168h-577z" />
<glyph unicode="&#xb2;" horiz-adv-x="573" d="M51 979v154l162 145q52 44 75 75.5t23 63.5q0 51 -86 51q-23 0 -63.5 -3.5t-69.5 -6.5l-29 -4l-8 164q138 20 230 20q117 0 166 -45.5t49 -150.5q0 -67 -27 -115t-92 -100l-100 -86h223v-162h-453z" />
<glyph unicode="&#xb3;" horiz-adv-x="573" d="M49 975l12 158q121 -15 197 -15q78 0 78 58q0 29 -18 41t-54 12h-135v147h133q24 0 40.5 15t16.5 39q0 49 -71 49q-36 0 -80.5 -3.5t-71.5 -6.5l-26 -3l-13 154q133 18 217 18q118 0 176 -42.5t58 -133.5q0 -57 -21.5 -94.5t-48.5 -52.5q42 -16 63 -50.5t21 -103.5 q0 -102 -60.5 -152.5t-170.5 -50.5q-44 0 -104.5 4t-98.5 8z" />
<glyph unicode="&#xb4;" horiz-adv-x="548" d="M29 1325l483 207l70 -193l-500 -159z" />
<glyph unicode="&#xb5;" d="M147 -440v1464h224v-586q1 -77 7.5 -122t25 -79t52.5 -47.5t89 -13.5t113 13t89 27l31 13v795h221v-1024h-221v63q-17 -10 -45 -24t-101.5 -38t-129.5 -24q-76 0 -131 15v-432h-224z" />
<glyph unicode="&#xb8;" horiz-adv-x="540" d="M72 -453l8 134q70 -5 113 -5t63 15t20 49q0 31 -19.5 43t-63.5 12h-64v207h96v-88q64 -1 105.5 -8t75 -26t48.5 -53t15 -87q0 -107 -56.5 -160t-156.5 -53q-39 0 -85 5t-73 10z" />
<glyph unicode="&#xb9;" horiz-adv-x="573" d="M39 1468l215 150h164v-639h-180v440l-115 -78z" />
<glyph unicode="&#xbb;" horiz-adv-x="1177" d="M123 86v227l237 193l-237 170v225l428 -317v-166zM662 86v227l237 193l-237 170v225l428 -317v-166z" />
<glyph unicode="&#xbf;" horiz-adv-x="894" d="M66 -70q0 137 34 208.5t144 160.5q98 76 132 123.5t34 103.5v68h180q5 -7 13.5 -20.5t22 -55t13.5 -84.5q0 -52 -39 -102.5t-127 -124.5q-113 -92 -145.5 -138.5t-32.5 -115.5q0 -79 50.5 -117.5t166.5 -38.5q56 0 132.5 9.5t124.5 19.5l48 10l12 -170q-21 -8 -57 -19 t-128 -29.5t-161 -18.5q-216 0 -316.5 78t-100.5 253zM387 737v287h238v-287h-238z" />
<glyph unicode="&#xc0;" horiz-adv-x="1226" d="M41 0l346 1403h453l348 -1403h-230l-75 301h-539l-76 -301h-227zM309 1724l72 199l483 -211l-57 -156zM389 502h449l-172 710h-103z" />
<glyph unicode="&#xc1;" horiz-adv-x="1226" d="M41 0l346 1403h453l348 -1403h-230l-75 301h-539l-76 -301h-227zM352 1712l484 211l71 -199l-497 -168zM389 502h449l-172 710h-103z" />
<glyph unicode="&#xc2;" horiz-adv-x="1226" d="M41 0l346 1403h453l348 -1403h-230l-75 301h-539l-76 -301h-227zM240 1589l274 293h193l274 -293h-238l-131 137l-133 -137h-239zM389 502h449l-172 710h-103z" />
<glyph unicode="&#xc3;" horiz-adv-x="1226" d="M41 0l346 1403h453l348 -1403h-230l-75 301h-539l-76 -301h-227zM229 1763q4 5 12 13.5t31 30.5t46 39t55 30.5t59 13.5q49 0 121 -25.5t133 -51t84 -25.5q22 0 61 22.5t67 45.5l28 22l49 -162q-4 -5 -11.5 -13.5t-30 -30t-45 -38t-54 -30t-58.5 -13.5q-55 0 -183.5 51.5 t-158.5 51.5q-24 0 -62.5 -22.5t-65.5 -45.5l-27 -22zM389 502h449l-172 710h-103z" />
<glyph unicode="&#xc4;" horiz-adv-x="1226" d="M41 0l346 1403h453l348 -1403h-230l-75 301h-539l-76 -301h-227zM291 1604v233h213v-233h-213zM389 502h449l-172 710h-103zM719 1604v233h213v-233h-213z" />
<glyph unicode="&#xc5;" horiz-adv-x="1226" d="M41 0l336 1360q-43 59 -43 137q0 112 79 176t199 64t200.5 -64t80.5 -176q0 -78 -43 -137l338 -1360h-230l-75 301h-539l-76 -301h-227zM389 502h449l-172 710h-103zM489 1497q0 -44 33 -69t90 -25t91 25t34 69t-34 70t-91 26t-90 -26t-33 -70z" />
<glyph unicode="&#xc6;" horiz-adv-x="1787" d="M31 0l413 1419h1254v-219h-656v-371h533v-215h-533v-395h656v-219h-881v291h-469l-86 -291h-231zM406 510h411l2 690h-213z" />
<glyph unicode="&#xc7;" horiz-adv-x="1114" d="M106 700q0 158 14.5 270.5t50 202.5t96 143.5t150.5 81t216 27.5q177 0 401 -51l-8 -184q-72 13 -181 23t-181 10q-79 0 -133 -17t-91.5 -52t-58.5 -99t-30 -148t-9 -207q0 -101 5 -172.5t18.5 -133t36.5 -99.5t60 -65t87.5 -38.5t120.5 -11.5q161 0 356 31l6 -188 q-198 -43 -381 -46v-63q64 -1 105.5 -8t75 -26t48.5 -53t15 -87q0 -107 -56.5 -160t-156.5 -53q-39 0 -85 5t-73 10l-26 5l8 134q69 -5 112 -5q84 0 84 64q0 31 -19.5 43t-64.5 12h-63v187q-108 8 -186 42.5t-128.5 91.5t-80.5 146t-42 193t-12 245z" />
<glyph unicode="&#xc8;" horiz-adv-x="1132" d="M162 0v1403h885v-199h-658v-397h535v-197h-535v-409h658v-201h-885zM311 1724l72 199l483 -211l-57 -156z" />
<glyph unicode="&#xc9;" horiz-adv-x="1132" d="M162 0v1403h885v-199h-658v-397h535v-197h-535v-409h658v-201h-885zM336 1712l483 211l72 -199l-498 -168z" />
<glyph unicode="&#xca;" horiz-adv-x="1132" d="M162 0v1403h885v-199h-658v-397h535v-197h-535v-409h658v-201h-885zM236 1589l274 293h192l275 -293h-238l-131 137l-133 -137h-239z" />
<glyph unicode="&#xcb;" horiz-adv-x="1132" d="M162 0v1403h885v-199h-658v-397h535v-197h-535v-409h658v-201h-885zM283 1604v233h213v-233h-213zM711 1604v233h213v-233h-213z" />
<glyph unicode="&#xcc;" horiz-adv-x="550" d="M-47 1724l72 199l483 -211l-57 -156zM162 0v1403h227v-1403h-227z" />
<glyph unicode="&#xcd;" horiz-adv-x="550" d="M20 1712l484 211l71 -199l-497 -168zM162 0v1403h227v-1403h-227z" />
<glyph unicode="&#xce;" horiz-adv-x="550" d="M-100 1589l274 293h193l274 -293h-238l-131 137l-133 -137h-239zM162 0v1403h227v-1403h-227z" />
<glyph unicode="&#xcf;" horiz-adv-x="550" d="M-45 1604v233h213v-233h-213zM162 0v1403h227v-1403h-227zM383 1604v233h213v-233h-213z" />
<glyph unicode="&#xd0;" horiz-adv-x="1318" d="M47 598v217h123v604h481q135 0 233.5 -30t161.5 -84t100.5 -141t52.5 -189t15 -240q0 -101 -6.5 -182.5t-23.5 -159t-45 -136.5t-71.5 -109t-101.5 -81.5t-137.5 -49t-177.5 -17.5h-481v598h-123zM395 217h256q60 0 108 13.5t82 37t59 60.5t40 78t24 96.5t12 109.5t3 123 q0 95 -6.5 161t-27 128t-56 98.5t-95 58t-143.5 21.5h-256v-387h291v-217h-291v-381z" />
<glyph unicode="&#xd1;" horiz-adv-x="1404" d="M162 0v1403h397l426 -1202h31v1202h227v-1403h-389l-436 1204h-29v-1204h-227zM322 1763q4 5 11.5 13.5t31 30.5t46.5 39t54.5 30.5t58.5 13.5q49 0 121 -25.5t133 -51t84 -25.5q22 0 61 22.5t67 45.5l28 22l49 -162q-4 -5 -11.5 -13.5t-30 -30t-45 -38t-54 -30 t-58.5 -13.5q-55 0 -183.5 51.5t-158.5 51.5q-24 0 -62.5 -22.5t-65.5 -45.5l-27 -22z" />
<glyph unicode="&#xd2;" horiz-adv-x="1343" d="M100 694q0 145 17.5 256.5t58 203t106 150t163 90t227.5 31.5q162 0 273.5 -47t176 -143t92 -226.5t27.5 -314.5q0 -185 -27.5 -314t-92.5 -222t-175.5 -137t-273.5 -44q-131 0 -228.5 29.5t-163 86t-106 145.5t-57.5 199.5t-17 256.5zM336 694q0 -138 14.5 -229.5 t51.5 -159.5t103 -98.5t167 -30.5t166.5 29.5t102.5 97t51 159t14 232.5q0 110 -9 190t-31 147.5t-59.5 109t-96 64t-138.5 22.5t-138.5 -22.5t-96.5 -64t-60.5 -109t-31.5 -148t-9 -189.5zM367 1724l71 199l484 -211l-58 -156z" />
<glyph unicode="&#xd3;" horiz-adv-x="1343" d="M100 694q0 145 17.5 256.5t58 203t106 150t163 90t227.5 31.5q162 0 273.5 -47t176 -143t92 -226.5t27.5 -314.5q0 -185 -27.5 -314t-92.5 -222t-175.5 -137t-273.5 -44q-131 0 -228.5 29.5t-163 86t-106 145.5t-57.5 199.5t-17 256.5zM336 694q0 -138 14.5 -229.5 t51.5 -159.5t103 -98.5t167 -30.5t166.5 29.5t102.5 97t51 159t14 232.5q0 110 -9 190t-31 147.5t-59.5 109t-96 64t-138.5 22.5t-138.5 -22.5t-96.5 -64t-60.5 -109t-31.5 -148t-9 -189.5zM371 1712l483 211l72 -199l-498 -168z" />
<glyph unicode="&#xd4;" horiz-adv-x="1343" d="M100 694q0 145 17.5 256.5t58 203t106 150t163 90t227.5 31.5q162 0 273.5 -47t176 -143t92 -226.5t27.5 -314.5q0 -185 -27.5 -314t-92.5 -222t-175.5 -137t-273.5 -44q-131 0 -228.5 29.5t-163 86t-106 145.5t-57.5 199.5t-17 256.5zM303 1589l275 293h192l274 -293 h-237l-131 137l-133 -137h-240zM336 694q0 -138 14.5 -229.5t51.5 -159.5t103 -98.5t167 -30.5t166.5 29.5t102.5 97t51 159t14 232.5q0 110 -9 190t-31 147.5t-59.5 109t-96 64t-138.5 22.5t-138.5 -22.5t-96.5 -64t-60.5 -109t-31.5 -148t-9 -189.5z" />
<glyph unicode="&#xd5;" horiz-adv-x="1343" d="M100 694q0 145 17.5 256.5t58 203t106 150t163 90t227.5 31.5q162 0 273.5 -47t176 -143t92 -226.5t27.5 -314.5q0 -185 -27.5 -314t-92.5 -222t-175.5 -137t-273.5 -44q-131 0 -228.5 29.5t-163 86t-106 145.5t-57.5 199.5t-17 256.5zM295 1763q4 5 12 13.5t31 30.5 t46 39t55 30.5t59 13.5q49 0 121 -25.5t133 -51t84 -25.5q22 0 60.5 22.5t66.5 45.5l28 22l49 -162q-4 -5 -11.5 -13.5t-30 -30t-45 -38t-53.5 -30t-58 -13.5q-55 0 -183.5 51.5t-158.5 51.5q-24 0 -63 -22.5t-66 -45.5l-27 -22zM336 694q0 -138 14.5 -229.5t51.5 -159.5 t103 -98.5t167 -30.5t166.5 29.5t102.5 97t51 159t14 232.5q0 110 -9 190t-31 147.5t-59.5 109t-96 64t-138.5 22.5t-138.5 -22.5t-96.5 -64t-60.5 -109t-31.5 -148t-9 -189.5z" />
<glyph unicode="&#xd6;" horiz-adv-x="1343" d="M100 694q0 145 17.5 256.5t58 203t106 150t163 90t227.5 31.5q162 0 273.5 -47t176 -143t92 -226.5t27.5 -314.5q0 -185 -27.5 -314t-92.5 -222t-175.5 -137t-273.5 -44q-131 0 -228.5 29.5t-163 86t-106 145.5t-57.5 199.5t-17 256.5zM336 694q0 -138 14.5 -229.5 t51.5 -159.5t103 -98.5t167 -30.5t166.5 29.5t102.5 97t51 159t14 232.5q0 110 -9 190t-31 147.5t-59.5 109t-96 64t-138.5 22.5t-138.5 -22.5t-96.5 -64t-60.5 -109t-31.5 -148t-9 -189.5zM352 1604v233h213v-233h-213zM780 1604v233h213v-233h-213z" />
<glyph unicode="&#xd8;" horiz-adv-x="1343" d="M100 694q0 145 17.5 256.5t58 203t106 150t163 90t227.5 31.5q123 0 229 -32l119 256l168 -72l-127 -272q96 -88 138 -238.5t42 -372.5q0 -185 -27.5 -314t-92.5 -222t-175.5 -137t-273.5 -44q-121 0 -219 25l-117 -252l-164 80l119 254q-102 83 -146.5 233t-44.5 377z M336 694q0 -271 61 -383l416 893q-64 23 -141 23q-80 0 -138.5 -22.5t-96.5 -64t-60.5 -109t-31.5 -148t-9 -189.5zM543 193q63 -17 129 -17q101 0 166.5 29.5t102.5 97t51 159t14 232.5q0 252 -56 375z" />
<glyph unicode="&#xd9;" horiz-adv-x="1331" d="M150 453v950h229v-954q0 -140 71.5 -206.5t213.5 -66.5q288 0 288 273v954h230v-950q0 -248 -130 -362t-388 -114q-257 0 -385.5 114t-128.5 362zM377 1724l72 199l483 -211l-58 -156z" />
<glyph unicode="&#xda;" horiz-adv-x="1331" d="M150 453v950h229v-954q0 -140 71.5 -206.5t213.5 -66.5q288 0 288 273v954h230v-950q0 -248 -130 -362t-388 -114q-257 0 -385.5 114t-128.5 362zM379 1712l483 211l72 -199l-498 -168z" />
<glyph unicode="&#xdb;" horiz-adv-x="1331" d="M150 453v950h229v-954q0 -140 71.5 -206.5t213.5 -66.5q288 0 288 273v954h230v-950q0 -248 -130 -362t-388 -114q-257 0 -385.5 114t-128.5 362zM295 1589l274 293h193l274 -293h-237l-131 137l-133 -137h-240z" />
<glyph unicode="&#xdc;" horiz-adv-x="1331" d="M150 453v950h229v-954q0 -140 71.5 -206.5t213.5 -66.5q288 0 288 273v954h230v-950q0 -248 -130 -362t-388 -114q-257 0 -385.5 114t-128.5 362zM346 1604v233h213v-233h-213zM774 1604v233h213v-233h-213z" />
<glyph unicode="&#xdd;" horiz-adv-x="1124" d="M8 1403h256l297 -602l299 602h254l-436 -825v-578h-229v578zM303 1712l483 211l72 -199l-498 -168z" />
<glyph unicode="&#xde;" horiz-adv-x="1222" d="M162 0v1419h227v-215h287q479 0 479 -473q0 -243 -121.5 -376.5t-357.5 -133.5h-287v-221h-227zM389 442h285q125 0 187.5 76t62.5 213q0 132 -61 194t-189 62h-285v-545z" />
<glyph unicode="&#xdf;" horiz-adv-x="1218" d="M135 0v1090q0 209 103 296t340 87q226 0 332 -73.5t106 -238.5q0 -74 -21 -123.5t-57.5 -78.5t-101.5 -58q-76 -34 -98.5 -52t-22.5 -46q0 -31 33 -56t153 -83q100 -47 152 -85t80 -93.5t28 -137.5q0 -208 -93.5 -289.5t-319.5 -81.5q-54 0 -127.5 9.5t-120.5 19.5 l-47 10l8 181q188 -23 262 -23q118 0 163.5 35t45.5 106q0 62 -36 95t-167 94q-138 60 -191 120t-53 158q0 89 37 140t121 86q87 36 115 64.5t28 74.5q0 70 -45 99.5t-163 29.5q-124 0 -172 -43t-48 -154v-1079h-223z" />
<glyph unicode="&#xe0;" horiz-adv-x="1038" d="M70 303q0 156 82.5 225.5t255.5 83.5l264 23v74q0 82 -36 114.5t-114 32.5q-61 0 -157 -5t-162 -10l-66 -5l-8 157q224 54 412 54q186 0 269 -81t83 -257v-467q3 -45 24 -67t66 -28l-6 -170q-96 0 -156 16.5t-116 59.5q-18 -9 -50 -21.5t-119 -33.5t-161 -21 q-152 0 -228.5 83t-76.5 243zM227 1339l70 193l483 -207l-53 -145zM293 309q0 -149 125 -149q52 0 115.5 11t100.5 23l38 11v272l-238 -22q-141 -12 -141 -146z" />
<glyph unicode="&#xe1;" horiz-adv-x="1038" d="M70 303q0 156 82.5 225.5t255.5 83.5l264 23v74q0 82 -36 114.5t-114 32.5q-61 0 -157 -5t-162 -10l-66 -5l-8 157q224 54 412 54q186 0 269 -81t83 -257v-467q3 -45 24 -67t66 -28l-6 -170q-96 0 -156 16.5t-116 59.5q-18 -9 -50 -21.5t-119 -33.5t-161 -21 q-152 0 -228.5 83t-76.5 243zM215 1325l483 207l70 -193l-500 -159zM293 309q0 -149 125 -149q52 0 115.5 11t100.5 23l38 11v272l-238 -22q-141 -12 -141 -146z" />
<glyph unicode="&#xe2;" horiz-adv-x="1038" d="M70 303q0 156 82.5 225.5t255.5 83.5l264 23v74q0 82 -36 114.5t-114 32.5q-61 0 -157 -5t-162 -10l-66 -5l-8 157q224 54 412 54q186 0 269 -81t83 -257v-467q3 -45 24 -67t66 -28l-6 -170q-96 0 -156 16.5t-116 59.5q-18 -9 -50 -21.5t-119 -33.5t-161 -21 q-152 0 -228.5 83t-76.5 243zM180 1198l256 299h142l260 -299h-209l-119 156l-119 -156h-211zM293 309q0 -149 125 -149q52 0 115.5 11t100.5 23l38 11v272l-238 -22q-141 -12 -141 -146z" />
<glyph unicode="&#xe3;" horiz-adv-x="1038" d="M70 303q0 156 82.5 225.5t255.5 83.5l264 23v74q0 82 -36 114.5t-114 32.5q-61 0 -157 -5t-162 -10l-66 -5l-8 157q224 54 412 54q186 0 269 -81t83 -257v-467q3 -45 24 -67t66 -28l-6 -170q-96 0 -156 16.5t-116 59.5q-18 -9 -50 -21.5t-119 -33.5t-161 -21 q-152 0 -228.5 83t-76.5 243zM131 1364q4 5 12 12.5t31 27.5t46 35t54 27.5t58 12.5q45 0 144.5 -41t125.5 -41q22 0 60.5 18.5t65.5 36.5l28 18l49 -131q-12 -13 -31.5 -32.5t-71.5 -51.5t-94 -32q-45 0 -143.5 41t-130.5 41q-24 0 -62.5 -17.5t-65.5 -35.5l-26 -17z M293 309q0 -149 125 -149q52 0 115.5 11t100.5 23l38 11v272l-238 -22q-141 -12 -141 -146z" />
<glyph unicode="&#xe4;" horiz-adv-x="1038" d="M70 303q0 156 82.5 225.5t255.5 83.5l264 23v74q0 82 -36 114.5t-114 32.5q-61 0 -157 -5t-162 -10l-66 -5l-8 157q224 54 412 54q186 0 269 -81t83 -257v-467q3 -45 24 -67t66 -28l-6 -170q-96 0 -156 16.5t-116 59.5q-18 -9 -50 -21.5t-119 -33.5t-161 -21 q-152 0 -228.5 83t-76.5 243zM170 1243v234h213v-234h-213zM293 309q0 -149 125 -149q52 0 115.5 11t100.5 23l38 11v272l-238 -22q-141 -12 -141 -146zM598 1243v234h213v-234h-213z" />
<glyph unicode="&#xe5;" horiz-adv-x="1038" d="M70 303q0 156 82.5 225.5t255.5 83.5l264 23v74q0 82 -36 114.5t-114 32.5q-61 0 -157 -5t-162 -10l-66 -5l-8 157q224 54 412 54q186 0 269 -81t83 -257v-467q3 -45 24 -67t66 -28l-6 -170q-96 0 -156 16.5t-116 59.5q-18 -9 -50 -21.5t-119 -33.5t-161 -21 q-152 0 -228.5 83t-76.5 243zM293 309q0 -149 125 -149q52 0 115.5 11t100.5 23l38 11v272l-238 -22q-141 -12 -141 -146zM305 1313q0 96 65.5 161.5t161.5 65.5t163 -66t67 -161q0 -97 -67 -162.5t-163 -65.5q-97 0 -162 65t-65 163zM432 1313q0 -44 29.5 -74.5t73.5 -30.5 q43 0 71.5 30.5t28.5 74.5q0 43 -28.5 72.5t-71.5 29.5q-44 0 -73.5 -29.5t-29.5 -72.5z" />
<glyph unicode="&#xe6;" horiz-adv-x="1624" d="M70 303q0 164 87 231.5t275 81.5l240 19v65q0 65 -36 99.5t-99 34.5q-68 0 -166.5 -6t-162.5 -12l-65 -5l-8 197q260 36 414 36q191 0 270 -106q100 106 293 106q217 0 323.5 -114t106.5 -352l-14 -162h-635q2 -123 55 -179.5t178 -56.5q72 0 167 5t153 9l59 5l4 -174 q-235 -48 -413 -48q-207 0 -310 103l-55 -25q-35 -16 -80.5 -31t-127.5 -31t-161 -16q-143 0 -217.5 85.5t-74.5 240.5zM293 309q0 -141 110 -141q51 0 120.5 12.5t112.5 24t50 14.5q-16 96 -16 244l-236 -17q-71 -5 -106 -37.5t-35 -99.5zM893 590h430q0 140 -49 199 t-162 59q-114 0 -166.5 -61.5t-52.5 -196.5z" />
<glyph unicode="&#xe7;" horiz-adv-x="905" d="M90 526q0 276 100 398.5t328 122.5q48 0 125 -9.5t129 -19.5l53 -10l-8 -177q-161 17 -239 17q-156 0 -209.5 -70t-53.5 -252q0 -104 10 -166.5t39.5 -106t80.5 -60.5t135 -17q35 0 94.5 4t101.5 8l43 5l6 -179q-205 -37 -309 -37v-63q64 -1 105.5 -8t75 -26t48.5 -53 t15 -87q0 -107 -56.5 -160t-156.5 -53q-39 0 -85.5 5t-73.5 10l-26 5l9 134q69 -5 112 -5q84 0 84 64q0 31 -19.5 43t-64.5 12h-63v189q-181 23 -255.5 148.5t-74.5 393.5z" />
<glyph unicode="&#xe8;" horiz-adv-x="1040" d="M86 502q0 545 444 545q216 0 323.5 -115.5t107.5 -353.5l-15 -160h-635q2 -126 55.5 -186t178.5 -60q72 0 166.5 4.5t152.5 9.5l58 4l4 -165q-234 -48 -414 -48q-227 0 -326.5 125.5t-99.5 399.5zM236 1339l69 193l483 -207l-53 -145zM309 590h432q0 151 -48.5 211.5 t-162.5 60.5q-115 0 -167.5 -63t-53.5 -209z" />
<glyph unicode="&#xe9;" horiz-adv-x="1040" d="M86 502q0 545 444 545q216 0 323.5 -115.5t107.5 -353.5l-15 -160h-635q2 -126 55.5 -186t178.5 -60q72 0 166.5 4.5t152.5 9.5l58 4l4 -165q-234 -48 -414 -48q-227 0 -326.5 125.5t-99.5 399.5zM250 1325l483 207l70 -193l-500 -159zM309 590h432q0 151 -48.5 211.5 t-162.5 60.5q-115 0 -167.5 -63t-53.5 -209z" />
<glyph unicode="&#xea;" horiz-adv-x="1040" d="M86 502q0 545 444 545q216 0 323.5 -115.5t107.5 -353.5l-15 -160h-635q2 -126 55.5 -186t178.5 -60q72 0 166.5 4.5t152.5 9.5l58 4l4 -165q-234 -48 -414 -48q-227 0 -326.5 125.5t-99.5 399.5zM203 1198l256 299h141l260 -299h-209l-119 156l-118 -156h-211zM309 590 h432q0 151 -48.5 211.5t-162.5 60.5q-115 0 -167.5 -63t-53.5 -209z" />
<glyph unicode="&#xeb;" horiz-adv-x="1040" d="M86 502q0 545 444 545q216 0 323.5 -115.5t107.5 -353.5l-15 -160h-635q2 -126 55.5 -186t178.5 -60q72 0 166.5 4.5t152.5 9.5l58 4l4 -165q-234 -48 -414 -48q-227 0 -326.5 125.5t-99.5 399.5zM205 1243v234h213v-234h-213zM309 590h432q0 151 -48.5 211.5 t-162.5 60.5q-115 0 -167.5 -63t-53.5 -209zM633 1243v234h213v-234h-213z" />
<glyph unicode="&#xec;" horiz-adv-x="493" d="M-121 1339l70 193l483 -207l-53 -145zM135 0v1024h223v-1024h-223z" />
<glyph unicode="&#xed;" horiz-adv-x="493" d="M70 1325l483 207l70 -193l-500 -159zM135 0h223v1024h-223v-1024z" />
<glyph unicode="&#xee;" horiz-adv-x="493" d="M-90 1198l256 299h141l260 -299h-209l-118 156l-119 -156h-211zM135 0h223v1024h-223v-1024z" />
<glyph unicode="&#xef;" horiz-adv-x="493" d="M-82 1243v234h213v-234h-213zM135 0h223v1024h-223v-1024zM346 1243v234h213v-234h-213z" />
<glyph unicode="&#xf0;" horiz-adv-x="1144" d="M82 440q0 208 112 329.5t326 121.5q65 0 140 -15.5t117 -31.5l42 -15q-10 112 -62 196.5t-167 148.5l-254 -170l-92 129l174 116q-96 32 -238 64l35 160q222 -29 395 -95l201 135l94 -129l-133 -88q281 -188 281 -581q0 -385 -117.5 -559t-382.5 -174q-229 0 -350 115.5 t-121 342.5zM315 440q0 -125 59 -191.5t179 -66.5q137 0 201 103.5t65 349.5q-15 6 -42 15.5t-102 25.5t-140 16q-105 0 -162.5 -72t-57.5 -180z" />
<glyph unicode="&#xf1;" horiz-adv-x="1118" d="M135 0h223v795q13 6 35 15t83 23.5t114 14.5q111 0 146.5 -69.5t35.5 -235.5v-543h221v549q0 132 -15.5 220.5t-54.5 153.5t-108.5 94.5t-175.5 29.5q-59 0 -130 -21.5t-112 -43.5l-41 -21v63h-221v-1024zM236 1364q12 13 31.5 32t72.5 51t96 32q45 0 145 -41t126 -41 q22 0 60 18.5t65 36.5l28 18l49 -131q-4 -5 -11.5 -12.5t-30 -27.5t-45 -35.5t-53 -28t-56.5 -12.5q-45 0 -144 41t-131 41q-24 0 -62 -17.5t-64 -35.5l-27 -17z" />
<glyph unicode="&#xf2;" horiz-adv-x="1085" d="M86 518q0 262 105.5 395.5t351.5 133.5q126 0 215 -35.5t141.5 -105.5t76 -164.5t23.5 -223.5q0 -133 -22 -229t-73.5 -168t-141 -108t-219.5 -36q-129 0 -218.5 36t-141.5 108t-74.5 168t-22.5 229zM268 1339l70 193l483 -207l-53 -145zM311 518q0 -94 9.5 -156 t35 -108.5t71 -67t116.5 -20.5t116.5 20.5t70.5 67t34.5 108t9.5 156.5q0 184 -50 262t-181 78q-132 0 -182 -78t-50 -262z" />
<glyph unicode="&#xf3;" horiz-adv-x="1085" d="M86 518q0 -133 22.5 -229t74.5 -168t141.5 -108t218.5 -36q130 0 219.5 36t141 108t73.5 168t22 229q0 129 -23.5 223.5t-76 164.5t-141.5 105.5t-215 35.5q-246 0 -351.5 -133.5t-105.5 -395.5zM270 1325l484 207l69 -193l-499 -159zM311 518q0 184 50 262t182 78 q131 0 181 -78t50 -262q0 -95 -9.5 -156.5t-34.5 -108t-70.5 -67t-116.5 -20.5t-116.5 20.5t-71 67t-35 108.5t-9.5 156z" />
<glyph unicode="&#xf4;" horiz-adv-x="1085" d="M86 518q0 -133 22.5 -229t74.5 -168t141.5 -108t218.5 -36q130 0 219.5 36t141 108t73.5 168t22 229q0 129 -23.5 223.5t-76 164.5t-141.5 105.5t-215 35.5q-246 0 -351.5 -133.5t-105.5 -395.5zM205 1198l256 299h141l260 -299h-209l-118 156l-119 -156h-211zM311 518 q0 184 50 262t182 78q131 0 181 -78t50 -262q0 -95 -9.5 -156.5t-34.5 -108t-70.5 -67t-116.5 -20.5t-116.5 20.5t-71 67t-35 108.5t-9.5 156z" />
<glyph unicode="&#xf5;" horiz-adv-x="1085" d="M86 518q0 -133 22.5 -229t74.5 -168t141.5 -108t218.5 -36q130 0 219.5 36t141 108t73.5 168t22 229q0 129 -23.5 223.5t-76 164.5t-141.5 105.5t-215 35.5q-246 0 -351.5 -133.5t-105.5 -395.5zM199 1364q12 13 31.5 32t72.5 51t96 32q45 0 145 -41t126 -41 q22 0 60 18.5t66 36.5l27 18l49 -131q-4 -5 -11.5 -12.5t-30 -27.5t-45 -35.5t-53 -28t-56.5 -12.5q-45 0 -144 41t-131 41q-24 0 -62 -17.5t-65 -35.5l-26 -17zM311 518q0 184 50 262t182 78q131 0 181 -78t50 -262q0 -95 -9.5 -156.5t-34.5 -108t-70.5 -67t-116.5 -20.5 t-116.5 20.5t-71 67t-35 108.5t-9.5 156z" />
<glyph unicode="&#xf6;" horiz-adv-x="1085" d="M86 518q0 -133 22.5 -229t74.5 -168t141.5 -108t218.5 -36q130 0 219.5 36t141 108t73.5 168t22 229q0 129 -23.5 223.5t-76 164.5t-141.5 105.5t-215 35.5q-246 0 -351.5 -133.5t-105.5 -395.5zM219 1243v234h213v-234h-213zM311 518q0 184 50 262t182 78q131 0 181 -78 t50 -262q0 -95 -9.5 -156.5t-34.5 -108t-70.5 -67t-116.5 -20.5t-116.5 20.5t-71 67t-35 108.5t-9.5 156zM647 1243v234h213v-234h-213z" />
<glyph unicode="&#xf8;" horiz-adv-x="1085" d="M86 518q0 262 105.5 395.5t351.5 133.5q47 0 131 -13l84 207l139 -51l-86 -207q188 -113 188 -465q0 -133 -22 -229t-73.5 -168t-141 -108t-219.5 -36q-73 0 -140 13l-88 -215l-137 51l90 215q-97 62 -139.5 180.5t-42.5 296.5zM311 518q0 -202 49 -274l244 608 q-27 6 -61 6q-132 0 -182 -78t-50 -262zM473 172q30 -6 70 -6q71 0 116.5 20.5t70.5 67t34.5 108t9.5 156.5q0 189 -53 264z" />
<glyph unicode="&#xf9;" horiz-adv-x="1112" d="M125 489v535h223v-537q0 -76 3 -120.5t12.5 -86t28.5 -61.5t50.5 -31.5t79.5 -11.5q55 0 113.5 13t89.5 27l31 13v795h221v-1024h-221v63q-17 -10 -45.5 -24t-102 -38t-129.5 -24q-88 0 -149.5 19.5t-101.5 56.5t-62.5 101t-31.5 142.5t-9 192.5zM215 1339l70 193 l483 -207l-53 -145z" />
<glyph unicode="&#xfa;" horiz-adv-x="1112" d="M125 489q0 -114 9 -192.5t31.5 -142.5t62.5 -101t101.5 -56.5t149.5 -19.5q56 0 125.5 21.5t110.5 43.5l41 21v-63h221v1024h-221v-795q-12 -6 -34 -15t-83.5 -23.5t-116.5 -14.5q-48 0 -79.5 11.5t-50.5 31.5t-28.5 61.5t-12.5 86t-3 120.5v537h-223v-535zM289 1325 l483 207l70 -193l-500 -159z" />
<glyph unicode="&#xfb;" horiz-adv-x="1112" d="M125 489q0 -114 9 -192.5t31.5 -142.5t62.5 -101t101.5 -56.5t149.5 -19.5q56 0 125.5 21.5t110.5 43.5l41 21v-63h221v1024h-221v-795q-12 -6 -34 -15t-83.5 -23.5t-116.5 -14.5q-48 0 -79.5 11.5t-50.5 31.5t-28.5 61.5t-12.5 86t-3 120.5v537h-223v-535zM188 1198 l256 299h142l260 -299h-209l-119 156l-119 -156h-211z" />
<glyph unicode="&#xfc;" horiz-adv-x="1112" d="M125 489q0 -114 9 -192.5t31.5 -142.5t62.5 -101t101.5 -56.5t149.5 -19.5q56 0 125.5 21.5t110.5 43.5l41 21v-63h221v1024h-221v-795q-12 -6 -34 -15t-83.5 -23.5t-116.5 -14.5q-48 0 -79.5 11.5t-50.5 31.5t-28.5 61.5t-12.5 86t-3 120.5v537h-223v-535zM240 1243v234 h213v-234h-213zM668 1243v234h213v-234h-213z" />
<glyph unicode="&#xfd;" horiz-adv-x="1007" d="M41 1024h219l217 -834h55l218 834h221l-389 -1464h-220l123 440h-176zM279 1325l483 207l69 -193l-499 -159z" />
<glyph unicode="&#xfe;" horiz-adv-x="1097" d="M135 -440v1890h223v-465q16 7 42.5 17.5t94 27.5t117.5 17q212 0 305 -118t93 -403q0 -160 -25.5 -265t-84 -168.5t-143 -89.5t-212.5 -26q-35 0 -81.5 3.5t-75.5 7.5l-30 4v-432h-223zM358 182q109 -12 170 -12q79 0 129 20t78 66t38.5 108t10.5 160q0 172 -47 248 t-151 76q-48 0 -105 -10t-90 -20l-33 -11v-625z" />
<glyph unicode="&#xff;" horiz-adv-x="1007" d="M41 1024h219l217 -834h55l218 834h221l-389 -1464h-220l123 440h-176zM184 1243v234h213v-234h-213zM612 1243v234h213v-234h-213z" />
<glyph unicode="&#x100;" horiz-adv-x="1226" d="M41 0l346 1403h453l348 -1403h-230l-75 301h-539l-76 -301h-227zM268 1628v166h680v-166h-680zM389 502h449l-172 710h-103z" />
<glyph unicode="&#x101;" horiz-adv-x="1038" d="M70 303q0 156 82.5 225.5t255.5 83.5l264 23v74q0 82 -36 114.5t-114 32.5q-61 0 -157 -5t-162 -10l-66 -5l-8 157q224 54 412 54q186 0 269 -81t83 -257v-467q3 -45 24 -67t66 -28l-6 -170q-96 0 -156 16.5t-116 59.5q-18 -9 -50 -21.5t-119 -33.5t-161 -21 q-152 0 -228.5 83t-76.5 243zM223 1247v168h578v-168h-578zM293 309q0 -149 125 -149q52 0 115.5 11t100.5 23l38 11v272l-238 -22q-141 -12 -141 -146z" />
<glyph unicode="&#x102;" horiz-adv-x="1226" d="M41 0l346 1403h453l348 -1403h-230l-75 301h-539l-76 -301h-227zM252 1872h203q5 -59 46.5 -96t104.5 -37q67 0 109 37t47 96h203q-12 -133 -104.5 -213t-254.5 -80q-161 0 -252 80.5t-102 212.5zM389 502h449l-172 710h-103z" />
<glyph unicode="&#x103;" horiz-adv-x="1040" d="M70 303q0 -154 75.5 -240t216.5 -86q74 0 159.5 18.5t134.5 36.5l49 19q48 -40 104 -57t166 -17l6 191q-47 6 -67 27t-21 73v434q0 181 -86 261.5t-258 80.5q-68 0 -171.5 -10t-173.5 -20l-69 -10l6 -191q244 21 396 21q62 0 98.5 -35t36.5 -99v-65l-264 -23 q-173 -13 -255.5 -82.5t-82.5 -226.5zM150 1518h229q13 -117 139 -117q64 0 98 30.5t39 86.5h230q-11 -142 -105 -228t-262 -86q-167 0 -261 86t-107 228zM293 309q0 128 141 137l238 17v-250q-152 -45 -269 -45q-110 0 -110 141z" />
<glyph unicode="&#x104;" horiz-adv-x="1226" d="M41 0l346 1403h453l348 -1403h-29q-13 -11 -39 -37.5t-57 -71.5t-31 -75q0 -35 20.5 -56.5t53.5 -21.5l92 10l21 -162q-109 -20 -189 -20q-91 0 -149 51t-58 139q0 123 140 244h-5l-75 301h-539l-76 -301h-227zM389 502h449l-172 710h-103z" />
<glyph unicode="&#x105;" horiz-adv-x="1036" d="M70 303q0 156 82.5 225.5t255.5 83.5l264 23v74q0 82 -36 114.5t-114 32.5q-61 0 -157 -5t-162 -10l-66 -5l-8 157q224 54 412 54q186 0 269 -81t83 -257v-467q3 -45 24 -67t66 -28l-6 -170q-39 0 -74 3q-106 -106 -106 -164q0 -35 20.5 -56.5t52.5 -21.5l93 10l20 -162 q-108 -20 -188 -20q-91 0 -149 51t-58 139q0 41 17 83t41.5 73t49 56.5t41.5 38.5l17 13q-26 13 -49 33q-18 -9 -50 -21.5t-119 -33.5t-161 -21q-152 0 -228.5 83t-76.5 243zM293 309q0 -149 125 -149q52 0 115.5 11t100.5 23l38 11v272l-238 -22q-141 -12 -141 -146z" />
<glyph unicode="&#x106;" horiz-adv-x="1114" d="M106 700q0 158 14.5 270.5t50 202.5t96 143.5t150.5 81t216 27.5q177 0 401 -51l-8 -184q-72 13 -181 23t-181 10q-79 0 -133 -17t-91.5 -52t-58.5 -99t-30 -148t-9 -207q0 -101 5 -172.5t18.5 -133t36.5 -99.5t60 -65t87.5 -38.5t120.5 -11.5q161 0 356 31l6 -188 q-221 -46 -399 -46q-127 0 -219 30t-151.5 85.5t-94.5 147t-48.5 200.5t-13.5 260zM332 1712l483 211l72 -199l-498 -168z" />
<glyph unicode="&#x107;" horiz-adv-x="905" d="M90 526q0 276 100 398.5t328 122.5q48 0 125 -9.5t129 -19.5l53 -10l-8 -177q-161 17 -239 17q-156 0 -209.5 -70t-53.5 -252q0 -104 10 -166.5t39.5 -106t80.5 -60.5t135 -17q35 0 94.5 4t101.5 8l43 5l6 -179q-207 -37 -311 -37q-234 0 -329 125.5t-95 423.5zM225 1325 l484 207l69 -193l-499 -159z" />
<glyph unicode="&#x108;" horiz-adv-x="1114" d="M106 700q0 158 14.5 270.5t50 202.5t96 143.5t150.5 81t216 27.5q177 0 401 -51l-8 -184q-72 13 -181 23t-181 10q-79 0 -133 -17t-91.5 -52t-58.5 -99t-30 -148t-9 -207q0 -101 5 -172.5t18.5 -133t36.5 -99.5t60 -65t87.5 -38.5t120.5 -11.5q161 0 356 31l6 -188 q-221 -46 -399 -46q-127 0 -219 30t-151.5 85.5t-94.5 147t-48.5 200.5t-13.5 260zM252 1589l274 293h193l274 -293h-237l-131 137l-133 -137h-240z" />
<glyph unicode="&#x109;" horiz-adv-x="905" d="M90 526q0 276 100 398.5t328 122.5q48 0 125 -9.5t129 -19.5l53 -10l-8 -177q-161 17 -239 17q-156 0 -209.5 -70t-53.5 -252q0 -104 10 -166.5t39.5 -106t80.5 -60.5t135 -17q35 0 94.5 4t101.5 8l43 5l6 -179q-207 -37 -311 -37q-234 0 -329 125.5t-95 423.5zM135 1198 l256 299h141l261 -299h-209l-119 156l-119 -156h-211z" />
<glyph unicode="&#x10a;" horiz-adv-x="1114" d="M106 700q0 158 14.5 270.5t50 202.5t96 143.5t150.5 81t216 27.5q177 0 401 -51l-8 -184q-72 13 -181 23t-181 10q-79 0 -133 -17t-91.5 -52t-58.5 -99t-30 -148t-9 -207q0 -101 5 -172.5t18.5 -133t36.5 -99.5t60 -65t87.5 -38.5t120.5 -11.5q161 0 356 31l6 -188 q-221 -46 -399 -46q-127 0 -219 30t-151.5 85.5t-94.5 147t-48.5 200.5t-13.5 260zM481 1591v234h221v-234h-221z" />
<glyph unicode="&#x10b;" horiz-adv-x="905" d="M90 526q0 276 100 398.5t328 122.5q48 0 125 -9.5t129 -19.5l53 -10l-8 -177q-161 17 -239 17q-156 0 -209.5 -70t-53.5 -252q0 -104 10 -166.5t39.5 -106t80.5 -60.5t135 -17q35 0 94.5 4t101.5 8l43 5l6 -179q-207 -37 -311 -37q-234 0 -329 125.5t-95 423.5zM410 1186 v233h221v-233h-221z" />
<glyph unicode="&#x10c;" horiz-adv-x="1114" d="M106 700q0 158 14.5 270.5t50 202.5t96 143.5t150.5 81t216 27.5q177 0 401 -51l-8 -184q-72 13 -181 23t-181 10q-79 0 -133 -17t-91.5 -52t-58.5 -99t-30 -148t-9 -207q0 -101 5 -172.5t18.5 -133t36.5 -99.5t60 -65t87.5 -38.5t120.5 -11.5q161 0 356 31l6 -188 q-221 -46 -399 -46q-127 0 -219 30t-151.5 85.5t-94.5 147t-48.5 200.5t-13.5 260zM256 1882h240l133 -135l129 135h239l-274 -293h-193z" />
<glyph unicode="&#x10d;" horiz-adv-x="905" d="M90 526q0 276 100 398.5t328 122.5q48 0 125 -9.5t129 -19.5l53 -10l-8 -177q-161 17 -239 17q-156 0 -209.5 -70t-53.5 -252q0 -104 10 -166.5t39.5 -106t80.5 -60.5t135 -17q35 0 94.5 4t101.5 8l43 5l6 -179q-207 -37 -311 -37q-234 0 -329 125.5t-95 423.5zM164 1497 h209l121 -154l118 154h209l-260 -299h-141z" />
<glyph unicode="&#x10e;" horiz-adv-x="1312" d="M162 0v1403h485q134 0 232 -29.5t161 -83t100.5 -139.5t52.5 -187.5t15 -238.5q0 -142 -13.5 -247t-50.5 -199t-99 -152.5t-162 -92.5t-236 -34h-485zM244 1882h239l133 -135l129 135h240l-274 -293h-193zM389 201h258q83 0 142.5 26t94.5 69t55.5 113t27 142.5 t6.5 173.5q0 83 -4.5 143t-17 117.5t-35.5 95t-58.5 67t-88 43t-122.5 13.5h-258v-1003z" />
<glyph unicode="&#x10f;" horiz-adv-x="1280" d="M88 510q0 278 103 407.5t323 129.5q72 0 234 -27v430h223v-1450h-221v53q-17 -9 -45.5 -21.5t-101 -33.5t-128.5 -21q-134 0 -217.5 50.5t-126.5 168.5t-43 314zM313 510q0 -128 24 -203t65.5 -103t107.5 -28q52 0 111.5 13t92.5 25l34 13v607q-120 20 -218 20 q-113 0 -165 -84t-52 -260zM1092 938h196l109 455h-217z" />
<glyph unicode="&#x110;" horiz-adv-x="1318" d="M47 598v217h123v604h481q135 0 233.5 -30t161.5 -84t100.5 -141t52.5 -189t15 -240q0 -101 -6.5 -182.5t-23.5 -159t-45 -136.5t-71.5 -109t-101.5 -81.5t-137.5 -49t-177.5 -17.5h-481v598h-123zM395 217h256q60 0 108 13.5t82 37t59 60.5t40 78t24 96.5t12 109.5t3 123 q0 95 -6.5 161t-27 128t-56 98.5t-95 58t-143.5 21.5h-256v-387h291v-217h-291v-381z" />
<glyph unicode="&#x111;" horiz-adv-x="1105" d="M88 510q0 278 103 407.5t323 129.5q72 0 234 -27v254h-431v192h637v-16h17v-1450h-221v53q-17 -9 -45.5 -21.5t-101 -33.5t-128.5 -21q-134 0 -217.5 50.5t-126.5 168.5t-43 314zM313 510q0 -128 24 -203t65.5 -103t107.5 -28q52 0 111.5 13t92.5 25l34 13v607 q-120 20 -218 20q-113 0 -165 -84t-52 -260z" />
<glyph unicode="&#x112;" horiz-adv-x="1132" d="M162 0v1403h885v-199h-658v-397h535v-197h-535v-409h658v-201h-885zM256 1628v166h680v-166h-680z" />
<glyph unicode="&#x113;" horiz-adv-x="1040" d="M86 502q0 545 444 545q216 0 323.5 -115.5t107.5 -353.5l-15 -160h-635q2 -126 55.5 -186t178.5 -60q72 0 166.5 4.5t152.5 9.5l58 4l4 -165q-234 -48 -414 -48q-227 0 -326.5 125.5t-99.5 399.5zM240 1247v168h577v-168h-577zM309 590h432q0 151 -48.5 211.5 t-162.5 60.5q-115 0 -167.5 -63t-53.5 -209z" />
<glyph unicode="&#x116;" horiz-adv-x="1132" d="M162 0v1403h885v-199h-658v-397h535v-197h-535v-409h658v-201h-885zM500 1602v233h221v-233h-221z" />
<glyph unicode="&#x117;" horiz-adv-x="1040" d="M86 502q0 545 444 545q216 0 323.5 -115.5t107.5 -353.5l-15 -160h-635q2 -126 55.5 -186t178.5 -60q72 0 166.5 4.5t152.5 9.5l58 4l4 -165q-234 -48 -414 -48q-227 0 -326.5 125.5t-99.5 399.5zM309 590h432q0 151 -48.5 211.5t-162.5 60.5q-115 0 -167.5 -63 t-53.5 -209zM412 1186v233h221v-233h-221z" />
<glyph unicode="&#x118;" horiz-adv-x="1132" d="M162 0v1403h885v-199h-658v-397h535v-197h-535v-409h658v-201h-60q-13 -11 -39 -37.5t-57 -71.5t-31 -75q0 -35 20.5 -56.5t53.5 -21.5l92 10l21 -162q-109 -20 -189 -20q-91 0 -149 51t-58 139q0 123 140 244h-629z" />
<glyph unicode="&#x119;" horiz-adv-x="1042" d="M86 502q0 545 444 545q216 0 323.5 -115.5t107.5 -353.5l-15 -160h-635q2 -126 55.5 -186t178.5 -60q72 0 166.5 4.5t152.5 9.5l58 4l4 -165q-50 -11 -113 -21l27 -2q-15 -13 -36.5 -34t-58 -71t-36.5 -81q0 -35 20.5 -56.5t52.5 -21.5l92 10l21 -162q-108 -20 -188 -20 q-91 0 -149 51t-58 139q0 112 121 228q-68 -7 -109 -7q-227 0 -326.5 125.5t-99.5 399.5zM309 590h432q0 151 -48.5 211.5t-162.5 60.5q-115 0 -167.5 -63t-53.5 -209z" />
<glyph unicode="&#x11a;" horiz-adv-x="1132" d="M162 0v1403h885v-199h-658v-397h535v-197h-535v-409h658v-201h-885zM211 1882h240l133 -135l129 135h239l-274 -293h-193z" />
<glyph unicode="&#x11b;" horiz-adv-x="1040" d="M86 502q0 545 444 545q216 0 323.5 -115.5t107.5 -353.5l-15 -160h-635q2 -126 55.5 -186t178.5 -60q72 0 166.5 4.5t152.5 9.5l58 4l4 -165q-234 -48 -414 -48q-227 0 -326.5 125.5t-99.5 399.5zM190 1497h209l121 -154l119 154h209l-260 -299h-142zM309 590h432 q0 151 -48.5 211.5t-162.5 60.5q-115 0 -167.5 -63t-53.5 -209z" />
<glyph unicode="&#x11c;" horiz-adv-x="1255" d="M102 702q0 190 27.5 322t92 224.5t171 135.5t262.5 43q96 0 215.5 -13.5t191.5 -27.5l71 -14l-9 -180q-248 33 -434 33q-86 0 -145 -17t-100 -52.5t-64 -99t-33 -147.5t-10 -207q0 -120 8.5 -201.5t30.5 -147t61.5 -102t99 -55t146.5 -18.5q62 0 131 6.5t92 12.5v342 h-174v200h400v-712q-16 -3 -89.5 -13.5t-188.5 -22t-191 -11.5q-132 0 -229.5 31t-161 88.5t-102 148.5t-54 199.5t-15.5 254.5zM297 1587l274 293h193l274 -293h-237l-131 137l-133 -137h-240z" />
<glyph unicode="&#x11d;" horiz-adv-x="1075" d="M86 -180q0 74 36.5 129t119.5 119q-32 22 -50 61.5t-18 87.5q0 21 18.5 62t37.5 71l18 31q-43 26 -73 59t-52.5 97t-22.5 151q0 184 110.5 270t299.5 86q42 0 94 -6.5t84 -13.5l31 -6l317 8v-180l-170 10q56 -73 56 -168q0 -103 -26.5 -172.5t-81.5 -109t-129 -56 t-181 -16.5q-54 0 -90 8q-29 -69 -29 -96q0 -35 14.5 -50.5t59 -22t147.5 -7.5q125 -1 203.5 -15t129.5 -50t71 -93t20 -147q0 -89 -35 -154.5t-99.5 -104.5t-148.5 -58t-190 -19q-245 0 -358 64t-113 231zM219 1198l256 299h141l261 -299h-209l-119 156l-119 -156h-211z M305 -160q0 -71 58 -102t196 -31q126 0 187 33.5t61 107.5q0 34 -7.5 55.5t-21 35.5t-42.5 21t-61 9.5t-87 3.5q-28 0 -78 3.5t-86 6.5l-37 3q-45 -37 -63.5 -68.5t-18.5 -77.5zM322 688q0 -94 45 -138t143 -44q102 0 146 43.5t44 138.5q0 94 -44.5 138t-145.5 44 q-98 0 -143 -44.5t-45 -137.5z" />
<glyph unicode="&#x11e;" horiz-adv-x="1255" d="M102 700q0 190 27.5 322t92 224.5t171 135.5t262.5 43q96 0 215.5 -13.5t191.5 -27.5l71 -14l-9 -180q-248 33 -434 33q-86 0 -145 -17t-100 -52.5t-64 -99t-33 -147.5t-10 -207q0 -120 8.5 -201.5t30.5 -147t61.5 -102t99 -55t146.5 -18.5q62 0 131 6.5t92 12.5v342 h-174v200h400v-712q-16 -4 -89.5 -14.5t-188.5 -22t-191 -11.5q-132 0 -229.5 31.5t-161 88.5t-102 148.5t-54 200t-15.5 254.5zM309 1872h203q5 -59 47 -96t105 -37q67 0 108.5 37t46.5 96h203q-12 -133 -104 -213t-254 -80q-161 0 -252.5 80.5t-102.5 212.5z" />
<glyph unicode="&#x11f;" horiz-adv-x="1075" d="M86 -180q0 74 36.5 129t119.5 119q-32 22 -50 61.5t-18 87.5q0 21 18.5 62t37.5 71l18 31q-43 26 -73 59t-52.5 97t-22.5 151q0 184 110.5 270t299.5 86q42 0 94 -6.5t84 -13.5l31 -6l317 8v-180l-170 10q56 -73 56 -168q0 -103 -26.5 -172.5t-81.5 -109t-129 -56 t-181 -16.5q-54 0 -90 8q-29 -69 -29 -96q0 -35 14.5 -50.5t59 -22t147.5 -7.5q125 -1 203.5 -15t129.5 -50t71 -93t20 -147q0 -89 -35 -154.5t-99.5 -104.5t-148.5 -58t-190 -19q-245 0 -358 64t-113 231zM223 1491h172q6 -69 46 -110.5t106 -41.5q67 0 105.5 42t43.5 110 h172q-13 -128 -97.5 -216.5t-223.5 -88.5q-140 0 -225.5 88.5t-98.5 216.5zM305 -160q0 -71 58 -102t196 -31q126 0 187 33.5t61 107.5q0 34 -7.5 55.5t-21 35.5t-42.5 21t-61 9.5t-87 3.5q-28 0 -78 3.5t-86 6.5l-37 3q-45 -37 -63.5 -68.5t-18.5 -77.5zM322 688 q0 -94 45 -138t143 -44q102 0 146 43.5t44 138.5q0 94 -44.5 138t-145.5 44q-98 0 -143 -44.5t-45 -137.5z" />
<glyph unicode="&#x120;" horiz-adv-x="1255" d="M102 700q0 190 27.5 322t92 224.5t171 135.5t262.5 43q96 0 215.5 -13.5t191.5 -27.5l71 -14l-9 -180q-248 33 -434 33q-86 0 -145 -17t-100 -52.5t-64 -99t-33 -147.5t-10 -207q0 -120 8.5 -201.5t30.5 -147t61.5 -102t99 -55t146.5 -18.5q62 0 131 6.5t92 12.5v342 h-174v200h400v-712q-16 -4 -89.5 -14.5t-188.5 -22t-191 -11.5q-132 0 -229.5 31.5t-161 88.5t-102 148.5t-54 200t-15.5 254.5zM528 1602v233h222v-233h-222z" />
<glyph unicode="&#x121;" horiz-adv-x="1075" d="M86 -180q0 74 36.5 129t119.5 119q-32 22 -50 61.5t-18 87.5q0 21 18.5 62t37.5 71l18 31q-43 26 -73 59t-52.5 97t-22.5 151q0 184 110.5 270t299.5 86q42 0 94 -6.5t84 -13.5l31 -6l317 8v-180l-170 10q56 -73 56 -168q0 -103 -26.5 -172.5t-81.5 -109t-129 -56 t-181 -16.5q-54 0 -90 8q-29 -69 -29 -96q0 -35 14.5 -50.5t59 -22t147.5 -7.5q125 -1 203.5 -15t129.5 -50t71 -93t20 -147q0 -89 -35 -154.5t-99.5 -104.5t-148.5 -58t-190 -19q-245 0 -358 64t-113 231zM305 -160q0 -71 58 -102t196 -31q126 0 187 33.5t61 107.5 q0 34 -7.5 55.5t-21 35.5t-42.5 21t-61 9.5t-87 3.5q-28 0 -78 3.5t-86 6.5l-37 3q-45 -37 -63.5 -68.5t-18.5 -77.5zM322 688q0 -94 45 -138t143 -44q102 0 146 43.5t44 138.5q0 94 -44.5 138t-145.5 44q-98 0 -143 -44.5t-45 -137.5zM434 1186v233h221v-233h-221z" />
<glyph unicode="&#x122;" horiz-adv-x="1255" d="M102 700q0 190 27.5 322t92 224.5t171 135.5t262.5 43q96 0 215.5 -13.5t191.5 -27.5l71 -14l-9 -180q-248 33 -434 33q-86 0 -145 -17t-100 -52.5t-64 -99t-33 -147.5t-10 -207q0 -120 8.5 -201.5t30.5 -147t61.5 -102t99 -55t146.5 -18.5q62 0 131 6.5t92 12.5v342 h-174v200h400v-712q-16 -4 -89.5 -14.5t-188.5 -22t-191 -11.5q-132 0 -229.5 31.5t-161 88.5t-102 148.5t-54 200t-15.5 254.5zM485 -614h199l109 456h-218z" />
<glyph unicode="&#x123;" horiz-adv-x="1075" d="M86 -180q0 74 36.5 129t119.5 119q-32 22 -50 61.5t-18 87.5q0 21 18.5 62t37.5 71l18 31q-43 26 -73 59t-52.5 97t-22.5 151q0 184 110.5 270t299.5 86q42 0 94 -6.5t84 -13.5l31 -6l317 8v-180l-170 10q56 -73 56 -168q0 -103 -26.5 -172.5t-81.5 -109t-129 -56 t-181 -16.5q-54 0 -90 8q-29 -69 -29 -96q0 -35 14.5 -50.5t59 -22t147.5 -7.5q125 -1 203.5 -15t129.5 -50t71 -93t20 -147q0 -89 -35 -154.5t-99.5 -104.5t-148.5 -58t-190 -19q-245 0 -358 64t-113 231zM305 -160q0 -71 58 -102t196 -31q126 0 187 33.5t61 107.5 q0 34 -7.5 55.5t-21 35.5t-42.5 21t-61 9.5t-87 3.5q-28 0 -78 3.5t-86 6.5l-37 3q-45 -37 -63.5 -68.5t-18.5 -77.5zM322 688q0 -94 45 -138t143 -44q102 0 146 43.5t44 138.5q0 94 -44.5 138t-145.5 44q-98 0 -143 -44.5t-45 -137.5zM369 1200l106 455h199l-90 -455h-215z " />
<glyph unicode="&#x124;" horiz-adv-x="1384" d="M162 0v1403h227v-598h606v598h230v-1403h-230v606h-606v-606h-227zM322 1589l274 293h192l275 -293h-238l-131 137l-133 -137h-239z" />
<glyph unicode="&#x125;" horiz-adv-x="1118" d="M135 0v1450h223v-479q17 9 46 21.5t103.5 33.5t131.5 21q106 0 175.5 -29.5t108.5 -94.5t54.5 -153.5t15.5 -220.5v-549h-223v543q0 67 -4 111.5t-15 84t-31 62t-52.5 35t-79.5 12.5q-50 0 -107.5 -11t-90.5 -23l-32 -11v-803h-223zM229 1556l256 299h142l260 -299h-209 l-119 156l-119 -156h-211z" />
<glyph unicode="&#x126;" horiz-adv-x="1402" d="M35 1014v194h135v195h227v-195h607v195h229v-195h149v-194h-149v-1014h-229v606h-607v-606h-227v1014h-135zM397 805h607v209h-607v-209z" />
<glyph unicode="&#x127;" horiz-adv-x="1118" d="M23 1133v192h112v125h223v-125h301v-192h-301v-162q17 9 46 21.5t103.5 33.5t131.5 21q106 0 175.5 -29.5t108.5 -94.5t54.5 -153.5t15.5 -220.5v-549h-223v543q0 67 -4 111.5t-15 84t-31 62t-52.5 35t-79.5 12.5q-50 0 -107.5 -11t-90.5 -23l-32 -11v-803h-223v1133 h-112z" />
<glyph unicode="&#x12a;" horiz-adv-x="550" d="M-59 1628v166h680v-166h-680zM162 0v1403h227v-1403h-227z" />
<glyph unicode="&#x12b;" horiz-adv-x="493" d="M-41 1247v168h578v-168h-578zM135 0h223v1024h-223v-1024z" />
<glyph unicode="&#x12e;" horiz-adv-x="550" d="M35 -244q0 73 46 137t99 107h-18v1403h227v-1403q-6 -5 -15.5 -13t-34 -31.5t-43.5 -45t-34.5 -48t-15.5 -46.5q0 -35 20 -56.5t51 -21.5l95 10l20 -162q-108 -20 -188 -20q-91 0 -150 51.5t-59 138.5z" />
<glyph unicode="&#x12f;" horiz-adv-x="493" d="M4 -244q0 50 29.5 103.5t59 84t61.5 56.5h-19v1024h223v-1024q-6 -4 -15.5 -12t-34.5 -31t-44.5 -44.5t-35 -48.5t-15.5 -48q0 -35 20.5 -56.5t53.5 -21.5l94 10l18 -162q-108 -20 -188 -20q-90 0 -148.5 51.5t-58.5 138.5zM135 1198v236h223v-236h-223z" />
<glyph unicode="&#x130;" horiz-adv-x="550" d="M162 0v1403h227v-1403h-227zM164 1602v233h221v-233h-221z" />
<glyph unicode="&#x131;" horiz-adv-x="493" d="M135 0v1024h223v-1024h-223z" />
<glyph unicode="&#x134;" horiz-adv-x="606" d="M-31 1587l275 293h192l275 -293h-238l-131 137l-133 -137h-240zM39 55q56 0 88 6t56.5 24.5t34 53.5t9.5 94v1170h226l2 -1186q0 -92 -16 -155.5t-46 -104.5t-83 -63t-115.5 -30.5t-155.5 -8.5v200z" />
<glyph unicode="&#x135;" horiz-adv-x="495" d="M-84 -299q100 63 142.5 102.5t60.5 91t18 144.5v985h221v-987q0 -138 -31.5 -221.5t-103.5 -145t-219 -135.5zM-80 1198l256 299h141l261 -299h-209l-119 156l-119 -156h-211z" />
<glyph unicode="&#x136;" horiz-adv-x="1189" d="M162 0v1419h227v-628l205 14l287 614h264l-346 -708l360 -711h-264l-297 586l-209 -15v-571h-227zM430 -614h197l108 456h-217z" />
<glyph unicode="&#x137;" horiz-adv-x="1021" d="M78 -614l88 456h217l-109 -456h-196zM135 0v1450h223v-838l127 13l242 399h250l-295 -479l311 -545h-252l-249 432l-134 -14v-418h-223z" />
<glyph unicode="&#x139;" horiz-adv-x="974" d="M162 0v1419h227v-1200h559v-219h-786zM246 1712l483 211l72 -199l-498 -168z" />
<glyph unicode="&#x13a;" horiz-adv-x="518" d="M94 1749l484 207l69 -193l-500 -159zM147 0v1450h224v-1450h-224z" />
<glyph unicode="&#x13b;" horiz-adv-x="972" d="M162 0v1403h227v-1200h559v-203h-786zM360 -614h199l109 456h-217z" />
<glyph unicode="&#x13c;" horiz-adv-x="518" d="M51 -614h199l108 456h-217zM147 0v1450h224v-1450h-224z" />
<glyph unicode="&#x13d;" horiz-adv-x="1015" d="M162 0v1403h227v-1200h559v-203h-786zM709 909v510h215v-510h-215z" />
<glyph unicode="&#x13e;" horiz-adv-x="677" d="M147 0v1450h224v-1450h-224zM489 938h197l109 455h-217z" />
<glyph unicode="&#x141;" horiz-adv-x="987" d="M-31 575l207 144v684h227v-524l242 170l109 -150l-351 -248v-448h560v-203h-787v492l-98 -68z" />
<glyph unicode="&#x142;" horiz-adv-x="716" d="M12 569l228 158v723h221v-567l139 98l109 -152l-248 -174v-655h-221v500l-119 -82z" />
<glyph unicode="&#x143;" horiz-adv-x="1404" d="M162 0v1403h397l426 -1202h31v1202h227v-1403h-389l-436 1204h-29v-1204h-227zM430 1712l483 211l72 -199l-498 -168z" />
<glyph unicode="&#x144;" horiz-adv-x="1118" d="M135 0h223v795q13 6 35 15t83 23.5t114 14.5q111 0 146.5 -69.5t35.5 -235.5v-543h221v549q0 132 -15.5 220.5t-54.5 153.5t-108.5 94.5t-175.5 29.5q-59 0 -130 -21.5t-112 -43.5l-41 -21v63h-221v-1024zM311 1325l484 207l69 -193l-499 -159z" />
<glyph unicode="&#x145;" horiz-adv-x="1404" d="M162 0v1403h397l426 -1202h31v1202h227v-1403h-389l-436 1204h-29v-1204h-227zM545 -614h198l107 456h-215z" />
<glyph unicode="&#x146;" horiz-adv-x="1118" d="M102 -614l88 456h218l-109 -456h-197zM135 0v1024h221v-63q17 10 45.5 24t103.5 38t134 24q106 0 175.5 -29.5t108.5 -94.5t54.5 -153.5t15.5 -220.5v-549h-221v543q0 166 -35.5 235.5t-146.5 69.5q-53 0 -111 -13t-89 -27l-32 -13v-795h-223z" />
<glyph unicode="&#x147;" horiz-adv-x="1404" d="M162 0v1403h397l426 -1202h31v1202h227v-1403h-389l-436 1204h-29v-1204h-227zM334 1880h239l134 -135l129 135h239l-274 -293h-193z" />
<glyph unicode="&#x148;" horiz-adv-x="1118" d="M135 0v1024h221v-63q17 10 45.5 24t103.5 38t134 24q106 0 175.5 -29.5t108.5 -94.5t54.5 -153.5t15.5 -220.5v-549h-221v543q0 166 -35.5 235.5t-146.5 69.5q-53 0 -111 -13t-89 -27l-32 -13v-795h-223zM227 1497h209l121 -154l119 154h209l-260 -299h-142z" />
<glyph unicode="&#x14c;" horiz-adv-x="1343" d="M100 694q0 145 17.5 256.5t58 203t106 150t163 90t227.5 31.5q162 0 273.5 -47t176 -143t92 -226.5t27.5 -314.5q0 -185 -27.5 -314t-92.5 -222t-175.5 -137t-273.5 -44q-131 0 -228.5 29.5t-163 86t-106 145.5t-57.5 199.5t-17 256.5zM326 1628v166h680v-166h-680z M336 694q0 -138 14.5 -229.5t51.5 -159.5t103 -98.5t167 -30.5t166.5 29.5t102.5 97t51 159t14 232.5q0 110 -9 190t-31 147.5t-59.5 109t-96 64t-138.5 22.5t-138.5 -22.5t-96.5 -64t-60.5 -109t-31.5 -148t-9 -189.5z" />
<glyph unicode="&#x14d;" horiz-adv-x="1085" d="M86 518q0 -133 22.5 -229t74.5 -168t141.5 -108t218.5 -36q130 0 219.5 36t141 108t73.5 168t22 229q0 129 -23.5 223.5t-76 164.5t-141.5 105.5t-215 35.5q-246 0 -351.5 -133.5t-105.5 -395.5zM260 1257v168h578v-168h-578zM311 518q0 184 50 262t182 78q131 0 181 -78 t50 -262q0 -95 -9.5 -156.5t-34.5 -108t-70.5 -67t-116.5 -20.5t-116.5 20.5t-71 67t-35 108.5t-9.5 156z" />
<glyph unicode="&#x150;" horiz-adv-x="1343" d="M100 694q0 145 17.5 256.5t58 203t106 150t163 90t227.5 31.5q162 0 273.5 -47t176 -143t92 -226.5t27.5 -314.5q0 -185 -27.5 -314t-92.5 -222t-175.5 -137t-273.5 -44q-131 0 -228.5 29.5t-163 86t-106 145.5t-57.5 199.5t-17 256.5zM315 1597l205 347l182 -80 l-219 -336zM336 694q0 -138 14.5 -229.5t51.5 -159.5t103 -98.5t167 -30.5t166.5 29.5t102.5 97t51 159t14 232.5q0 110 -9 190t-31 147.5t-59.5 109t-96 64t-138.5 22.5t-138.5 -22.5t-96.5 -64t-60.5 -109t-31.5 -148t-9 -189.5zM733 1595l203 347l184 -80l-221 -336z" />
<glyph unicode="&#x151;" horiz-adv-x="1085" d="M86 518q0 -133 22.5 -229t74.5 -168t141.5 -108t218.5 -36q130 0 219.5 36t141 108t73.5 168t22 229q0 129 -23.5 223.5t-76 164.5t-141.5 105.5t-215 35.5q-246 0 -351.5 -133.5t-105.5 -395.5zM145 1282l265 342l174 -115l-277 -340zM311 518q0 184 50 262t182 78 q131 0 181 -78t50 -262q0 -95 -9.5 -156.5t-34.5 -108t-70.5 -67t-116.5 -20.5t-116.5 20.5t-71 67t-35 108.5t-9.5 156zM553 1282l264 344l174 -117l-276 -340z" />
<glyph unicode="&#x152;" horiz-adv-x="1867" d="M104 707q0 199 27 333.5t89.5 226.5t165 133.5t255.5 41.5q114 0 260 -23h877v-219h-652v-371h529v-217h-529v-393h652v-219h-873q-153 -23 -264 -23q-129 0 -222.5 30t-154 86t-96.5 148t-50 202.5t-14 263.5zM340 709q0 -98 5.5 -167.5t19.5 -129.5t38 -97.5t62 -64.5 t90 -38t123 -11q60 0 223 14v987q-180 15 -229 15q-79 0 -134.5 -16.5t-94.5 -51t-61 -96t-32 -143.5t-10 -201z" />
<glyph unicode="&#x153;" horiz-adv-x="1728" d="M86 518q0 129 23.5 223t76.5 163.5t142.5 104.5t216.5 35t210 -42.5t132 -143.5q53 102 134.5 144t195.5 42q218 0 325 -114t107 -352l-17 -162h-635q2 -123 56 -179.5t180 -56.5q72 0 166 5t153 9l58 5l4 -174q-234 -48 -414 -48q-118 0 -195.5 37t-125.5 123 q-50 -86 -130 -123t-204 -37q-130 0 -220 36t-142 108t-74.5 168t-22.5 229zM311 518q0 -183 48.5 -261.5t185.5 -78.5q70 0 115.5 20.5t70.5 66t34 104t9 147.5q0 173 -52 251.5t-177 78.5q-132 0 -183 -76t-51 -252zM997 590h430q0 141 -48 199.5t-162 58.5 q-113 0 -166.5 -62.5t-53.5 -195.5z" />
<glyph unicode="&#x154;" horiz-adv-x="1265" d="M162 0h227v500h330l203 -500h249l-231 551q229 107 229 405q0 230 -119.5 338.5t-355.5 108.5h-532v-1403zM365 1712l483 211l72 -199l-498 -168zM389 696v510h305q121 0 181.5 -65t60.5 -187q0 -117 -58 -187.5t-180 -70.5h-309z" />
<glyph unicode="&#x155;" horiz-adv-x="739" d="M115 1325l483 207l70 -193l-500 -159zM135 0v1024h221v-123q20 13 53.5 32.5t126 59t169.5 54.5v-224q-83 -16 -169.5 -43t-131.5 -46l-46 -19v-715h-223z" />
<glyph unicode="&#x158;" horiz-adv-x="1265" d="M162 0v1403h532q236 0 355.5 -108.5t119.5 -338.5q0 -298 -229 -405l231 -551h-249l-203 500h-330v-500h-227zM244 1882h239l133 -135l129 135h240l-274 -293h-193zM389 696h309q122 0 180 70.5t58 187.5q0 122 -60.5 187t-181.5 65h-305v-510z" />
<glyph unicode="&#x159;" horiz-adv-x="739" d="M29 1497h209l120 -154l119 154h209l-260 -299h-141zM135 0v1024h221v-123q20 13 53.5 32.5t126 59t169.5 54.5v-224q-83 -16 -169.5 -43t-131.5 -46l-46 -19v-715h-223z" />
<glyph unicode="&#x15a;" horiz-adv-x="1112" d="M86 1028q0 205 123.5 302t343.5 97q79 0 190 -12.5t183 -24.5l71 -12l-18 -184q-287 33 -406 33q-260 0 -260 -183q0 -33 6 -57.5t23 -45t37.5 -35t60.5 -30.5t80 -28t107 -31q117 -33 188 -63.5t122 -76.5t71 -107t20 -152q0 -222 -126 -331.5t-343 -109.5 q-81 0 -195.5 14t-189.5 28l-74 14l23 182q277 -37 422 -37q254 0 254 225q0 88 -57.5 130t-221.5 81q-119 31 -196.5 63.5t-133 81t-80 113.5t-24.5 156zM313 1712l484 211l71 -199l-497 -168z" />
<glyph unicode="&#x15b;" horiz-adv-x="960" d="M82 727q0 84 31 146.5t85 99t121 54t146 17.5q67 0 163 -11.5t159 -22.5l63 -11l-4 -186q-242 33 -365 33q-94 0 -136 -25.5t-42 -87.5q0 -50 45.5 -72t198.5 -49q190 -33 262 -96t72 -213q0 -173 -103.5 -249.5t-302.5 -76.5q-63 0 -157.5 11.5t-157.5 23.5l-64 11 l8 186q247 -33 351 -33q111 0 157.5 27t46.5 94q0 38 -17.5 58.5t-66.5 36t-153 32.5q-74 12 -122.5 25t-93.5 35t-70 53.5t-39.5 78.5t-14.5 111zM207 1325l483 207l70 -193l-500 -159z" />
<glyph unicode="&#x15c;" horiz-adv-x="1112" d="M86 1028q0 205 123.5 302t343.5 97q79 0 190 -12.5t183 -24.5l71 -12l-18 -184q-287 33 -406 33q-260 0 -260 -183q0 -33 6 -57.5t23 -45t37.5 -35t60.5 -30.5t80 -28t107 -31q117 -33 188 -63.5t122 -76.5t71 -107t20 -152q0 -222 -126 -331.5t-343 -109.5 q-81 0 -195.5 14t-189.5 28l-74 14l23 182q277 -37 422 -37q254 0 254 225q0 88 -57.5 130t-221.5 81q-119 31 -196.5 63.5t-133 81t-80 113.5t-24.5 156zM193 1587l274 293h192l275 -293h-238l-131 137l-133 -137h-239z" />
<glyph unicode="&#x15d;" horiz-adv-x="960" d="M82 727q0 84 31 146.5t85 99t121 54t146 17.5q67 0 163 -11.5t159 -22.5l63 -11l-4 -186q-242 33 -365 33q-94 0 -136 -25.5t-42 -87.5q0 -50 45.5 -72t198.5 -49q190 -33 262 -96t72 -213q0 -173 -103.5 -249.5t-302.5 -76.5q-63 0 -157.5 11.5t-157.5 23.5l-64 11 l8 186q247 -33 351 -33q111 0 157.5 27t46.5 94q0 38 -17.5 58.5t-66.5 36t-153 32.5q-74 12 -122.5 25t-93.5 35t-70 53.5t-39.5 78.5t-14.5 111zM154 1198l256 299h141l260 -299h-209l-119 156l-118 -156h-211z" />
<glyph unicode="&#x15e;" horiz-adv-x="1112" d="M86 1028q0 205 123.5 302t343.5 97q79 0 190 -12.5t183 -24.5l71 -12l-18 -184q-287 33 -406 33q-260 0 -260 -183q0 -33 6 -57.5t23 -45t37.5 -35t60.5 -30.5t80 -28t107 -31q117 -33 188 -63.5t122 -76.5t71 -107t20 -152q0 -205 -107.5 -313.5t-295.5 -122.5v-68 q64 -1 105.5 -8t74.5 -26t48 -53t15 -87q0 -107 -56.5 -160t-156.5 -53q-39 0 -85 5t-72 10l-27 5l8 134q70 -5 113 -5q84 0 84 64q0 31 -19.5 43t-64.5 12h-64v182q-81 3 -188 17t-174 26l-66 13l23 182q277 -37 422 -37q254 0 254 225q0 88 -57.5 130t-221.5 81 q-119 31 -196.5 63.5t-133 81t-80 113.5t-24.5 156z" />
<glyph unicode="&#x15f;" horiz-adv-x="960" d="M82 727q0 84 31 146.5t85 99t121 54t146 17.5q67 0 163 -11.5t159 -22.5l63 -11l-4 -186q-242 33 -365 33q-94 0 -136 -25.5t-42 -87.5q0 -50 45.5 -72t198.5 -49q190 -33 262 -96t72 -213q0 -164 -93.5 -240.5t-273.5 -82.5v-66q64 -1 105.5 -8t75 -26t48.5 -53t15 -87 q0 -107 -56.5 -160t-156.5 -53q-39 0 -85.5 5t-73.5 10l-26 5l9 134q69 -5 112 -5q84 0 84 64q0 31 -19.5 43t-64.5 12h-63v185q-63 4 -143.5 14.5t-129.5 19.5l-49 9l8 186q247 -33 351 -33q111 0 157.5 27t46.5 94q0 38 -17.5 58.5t-66.5 36t-153 32.5q-74 12 -122.5 25 t-93.5 35t-70 53.5t-39.5 78.5t-14.5 111z" />
<glyph unicode="&#x160;" horiz-adv-x="1112" d="M86 1028q0 205 123.5 302t343.5 97q79 0 190 -12.5t183 -24.5l71 -12l-18 -184q-287 33 -406 33q-260 0 -260 -183q0 -33 6 -57.5t23 -45t37.5 -35t60.5 -30.5t80 -28t107 -31q117 -33 188 -63.5t122 -76.5t71 -107t20 -152q0 -222 -126 -331.5t-343 -109.5 q-81 0 -195.5 14t-189.5 28l-74 14l23 182q277 -37 422 -37q254 0 254 225q0 88 -57.5 130t-221.5 81q-119 31 -196.5 63.5t-133 81t-80 113.5t-24.5 156zM221 1882h240l133 -135l129 135h240l-275 -293h-192z" />
<glyph unicode="&#x161;" horiz-adv-x="960" d="M82 727q0 84 31 146.5t85 99t121 54t146 17.5q67 0 163 -11.5t159 -22.5l63 -11l-4 -186q-242 33 -365 33q-94 0 -136 -25.5t-42 -87.5q0 -50 45.5 -72t198.5 -49q190 -33 262 -96t72 -213q0 -173 -103.5 -249.5t-302.5 -76.5q-63 0 -157.5 11.5t-157.5 23.5l-64 11 l8 186q247 -33 351 -33q111 0 157.5 27t46.5 94q0 38 -17.5 58.5t-66.5 36t-153 32.5q-74 12 -122.5 25t-93.5 35t-70 53.5t-39.5 78.5t-14.5 111zM172 1497h209l121 -154l119 154h208l-260 -299h-141z" />
<glyph unicode="&#x162;" horiz-adv-x="0" />
<glyph unicode="&#x163;" horiz-adv-x="733" d="M51 834v190h131v297h221v-297h283v-190h-283v-451q0 -125 19 -166t94 -41l168 6l10 -178q-137 -27 -209 -27q-89 0 -145 17.5t-92.5 62.5t-51 116.5t-14.5 184.5v476h-131zM168 -453l8 134q70 -5 113 -5q84 0 84 64q0 31 -19.5 43t-64.5 12h-64v207h97v-88 q64 -1 105.5 -8t74.5 -26t48 -53t15 -87q0 -107 -56.5 -160t-156.5 -53q-39 0 -85 5t-73 10z" />
<glyph unicode="&#x164;" horiz-adv-x="1077" d="M27 1200v203h1024v-203h-396v-1200h-229v1200h-399zM170 1882h240l133 -135l129 135h239l-274 -293h-193z" />
<glyph unicode="&#x165;" horiz-adv-x="948" d="M51 821v201h131v299h224v-299h282v-201h-282v-426q0 -53 1.5 -81.5t7.5 -57t18 -41t32.5 -20t52.5 -7.5l166 7l12 -191q-137 -27 -209 -27q-89 0 -145.5 17.5t-93 62.5t-51.5 116.5t-15 184.5v463h-131zM764 909v510h215v-510h-215z" />
<glyph unicode="&#x16a;" horiz-adv-x="1331" d="M150 453v950h229v-954q0 -140 71.5 -206.5t213.5 -66.5q288 0 288 273v954h230v-950q0 -248 -130 -362t-388 -114q-257 0 -385.5 114t-128.5 362zM332 1628v166h680v-166h-680z" />
<glyph unicode="&#x16b;" horiz-adv-x="1112" d="M125 489q0 -114 9 -192.5t31.5 -142.5t62.5 -101t101.5 -56.5t149.5 -19.5q56 0 125.5 21.5t110.5 43.5l41 21v-63h221v1024h-221v-795q-12 -6 -34 -15t-83.5 -23.5t-116.5 -14.5q-48 0 -79.5 11.5t-50.5 31.5t-28.5 61.5t-12.5 86t-3 120.5v537h-223v-535zM266 1247v168 h578v-168h-578z" />
<glyph unicode="&#x16c;" horiz-adv-x="1331" d="M150 453v950h229v-954q0 -140 71.5 -206.5t213.5 -66.5q288 0 288 273v954h230v-950q0 -248 -130 -362t-388 -114q-257 0 -385.5 114t-128.5 362zM315 1872h203q5 -59 47 -96t105 -37q67 0 108.5 37t46.5 96h203q-12 -133 -104 -213t-254 -80q-161 0 -252.5 80.5 t-102.5 212.5z" />
<glyph unicode="&#x16d;" horiz-adv-x="1112" d="M125 489q0 -114 9 -192.5t31.5 -142.5t62.5 -101t101.5 -56.5t149.5 -19.5q56 0 125.5 21.5t110.5 43.5l41 21v-63h221v1024h-221v-795q-12 -6 -34 -15t-83.5 -23.5t-116.5 -14.5q-48 0 -79.5 11.5t-50.5 31.5t-28.5 61.5t-12.5 86t-3 120.5v537h-223v-535zM227 1491h172 q6 -69 46 -110.5t106 -41.5q67 0 105.5 42t43.5 110h172q-13 -128 -97.5 -216.5t-223.5 -88.5q-140 0 -225.5 88.5t-98.5 216.5z" />
<glyph unicode="&#x16e;" horiz-adv-x="1331" d="M150 453v950h229v-954q0 -140 71.5 -206.5t213.5 -66.5q288 0 288 273v954h230v-950q0 -248 -130 -362t-388 -114q-257 0 -385.5 114t-128.5 362zM391 1724q0 112 79.5 176t199.5 64t200 -64t80 -176t-80 -175.5t-200 -63.5t-199.5 63.5t-79.5 175.5zM547 1724 q0 -44 33 -69t90 -25t91 25t34 69t-34 70.5t-91 26.5t-90 -26.5t-33 -70.5z" />
<glyph unicode="&#x16f;" horiz-adv-x="1112" d="M125 489q0 -114 9 -192.5t31.5 -142.5t62.5 -101t101.5 -56.5t149.5 -19.5q56 0 125.5 21.5t110.5 43.5l41 21v-63h221v1024h-221v-795q-12 -6 -34 -15t-83.5 -23.5t-116.5 -14.5q-48 0 -79.5 11.5t-50.5 31.5t-28.5 61.5t-12.5 86t-3 120.5v537h-223v-535zM328 1313 q0 96 65.5 161.5t161.5 65.5q95 0 162 -66t67 -161q0 -97 -66.5 -162.5t-162.5 -65.5q-97 0 -162 65t-65 163zM455 1313q0 -45 29 -75t73 -30q43 0 71.5 30.5t28.5 74.5q0 43 -28.5 72.5t-71.5 29.5q-44 0 -73 -29.5t-29 -72.5z" />
<glyph unicode="&#x170;" horiz-adv-x="1331" d="M150 453v950h229v-954q0 -140 71.5 -206.5t213.5 -66.5q288 0 288 273v954h230v-950q0 -248 -130 -362t-388 -114q-257 0 -385.5 114t-128.5 362zM313 1597l205 347l182 -80l-219 -336zM731 1595l203 347l184 -80l-221 -336z" />
<glyph unicode="&#x171;" horiz-adv-x="1112" d="M125 489q0 -114 9 -192.5t31.5 -142.5t62.5 -101t101.5 -56.5t149.5 -19.5q56 0 125.5 21.5t110.5 43.5l41 21v-63h221v1024h-221v-795q-12 -6 -34 -15t-83.5 -23.5t-116.5 -14.5q-48 0 -79.5 11.5t-50.5 31.5t-28.5 61.5t-12.5 86t-3 120.5v537h-223v-535zM209 1282 l264 342l174 -115l-276 -340zM616 1282l265 344l174 -117l-277 -340z" />
<glyph unicode="&#x172;" horiz-adv-x="1333" d="M150 453v950h229v-954q0 -140 71.5 -206.5t213.5 -66.5q288 0 288 273v954h230v-950q0 -382 -326 -455q-12 -11 -29.5 -29t-41 -45t-39 -56.5t-15.5 -51.5q0 -35 20.5 -56.5t53.5 -21.5l92 10l21 -162q-109 -20 -189 -20q-91 0 -149 51t-58 139q0 111 115 221 q-243 6 -365 120t-122 356z" />
<glyph unicode="&#x173;" horiz-adv-x="1112" d="M125 489v533h223v-533q0 -76 3 -120.5t12.5 -86t28.5 -61.5t50.5 -31.5t79.5 -11.5q44 0 102.5 13t95.5 25l36 13v793h221v-1022q-6 -4 -16 -11t-36 -28.5t-46 -42.5t-36 -49.5t-16 -52.5q0 -35 20.5 -56.5t53.5 -21.5l92 10l21 -162q-109 -20 -189 -20q-91 0 -150 51.5 t-59 138.5q0 51 30.5 104.5t61 83.5t64.5 56h-16v53q-18 -9 -48 -21.5t-103.5 -33.5t-125.5 -21q-110 0 -179 28t-108 94t-53 156t-14 234z" />
<glyph unicode="&#x178;" horiz-adv-x="1124" d="M8 1403h256l297 -602l299 602h254l-436 -825v-578h-229v578zM238 1604v233h213v-233h-213zM666 1604v233h213v-233h-213z" />
<glyph unicode="&#x179;" horiz-adv-x="1093" d="M86 0v217l649 946v41h-649v199h922v-219l-652 -946v-39h652v-199h-922zM276 1712l484 211l71 -199l-497 -168z" />
<glyph unicode="&#x17a;" horiz-adv-x="929" d="M84 0h760v199h-492l492 626v199h-760v-199h494l-494 -626v-199zM195 1325l483 207l70 -193l-500 -159z" />
<glyph unicode="&#x17b;" horiz-adv-x="1093" d="M86 0v217l649 946v41h-649v199h922v-219l-652 -946v-39h652v-199h-922zM436 1602v233h221v-233h-221z" />
<glyph unicode="&#x17c;" horiz-adv-x="929" d="M84 0h760v199h-492l492 626v199h-760v-199h494l-494 -626v-199zM352 1186v233h221v-233h-221z" />
<glyph unicode="&#x17d;" horiz-adv-x="1093" d="M86 0v217l649 946v41h-649v199h922v-219l-652 -946v-39h652v-199h-922zM186 1882h240l133 -135l129 135h240l-275 -293h-192z" />
<glyph unicode="&#x17e;" horiz-adv-x="929" d="M84 0v199l494 626h-494v199h760v-199l-492 -626h492v-199h-760zM152 1497h208l121 -154l119 154h209l-260 -299h-141z" />
<glyph unicode="&#x218;" horiz-adv-x="1112" d="M86 1028q0 205 123.5 302t343.5 97q79 0 190 -12.5t183 -24.5l71 -12l-18 -184q-287 33 -406 33q-260 0 -260 -183q0 -33 6 -57.5t23 -45t37.5 -35t60.5 -30.5t80 -28t107 -31q117 -33 188 -63.5t122 -76.5t71 -107t20 -152q0 -222 -126 -331.5t-343 -109.5 q-81 0 -195.5 14t-189.5 28l-74 14l23 182q277 -37 422 -37q254 0 254 225q0 88 -57.5 130t-221.5 81q-119 31 -196.5 63.5t-133 81t-80 113.5t-24.5 156zM381 -614h199l108 456h-217z" />
<glyph unicode="&#x219;" horiz-adv-x="960" d="M78 -614h198l109 456h-217zM82 727q0 84 31 146.5t85 99t121 54t146 17.5q67 0 163 -11.5t159 -22.5l63 -11l-4 -186q-242 33 -365 33q-94 0 -136 -25.5t-42 -87.5q0 -50 45.5 -72t198.5 -49q190 -33 262 -96t72 -213q0 -173 -103.5 -249.5t-302.5 -76.5 q-63 0 -157.5 11.5t-157.5 23.5l-64 11l8 186q247 -33 351 -33q111 0 157.5 27t46.5 94q0 38 -17.5 58.5t-66.5 36t-153 32.5q-74 12 -122.5 25t-93.5 35t-70 53.5t-39.5 78.5t-14.5 111z" />
<glyph unicode="&#x21a;" horiz-adv-x="1077" d="M27 1200v203h1024v-203h-396v-1200h-229v1200h-399zM387 -614h199l108 456h-217z" />
<glyph unicode="&#x21b;" horiz-adv-x="733" d="M51 834v190h131v297h221v-297h283v-190h-283v-451q0 -125 19 -166t94 -41l168 6l10 -178q-137 -27 -209 -27q-89 0 -145 17.5t-92.5 62.5t-51 116.5t-14.5 184.5v476h-131zM92 -614h199l108 456h-217z" />
<glyph unicode="&#x2c6;" horiz-adv-x="520" d="M-45 1198l256 299h141l260 -299h-209l-118 156l-119 -156h-211z" />
<glyph unicode="&#x2c7;" horiz-adv-x="520" d="M-39 1497h209l121 -154l119 154h208l-260 -299h-141z" />
<glyph unicode="&#x2d8;" horiz-adv-x="520" d="M-39 1491h172q6 -69 46 -110.5t106 -41.5q67 0 105.5 42t43.5 110h172q-13 -128 -97.5 -216.5t-223.5 -88.5q-140 0 -225.5 88.5t-98.5 216.5z" />
<glyph unicode="&#x2d9;" horiz-adv-x="520" d="M150 1186v233h221v-233h-221z" />
<glyph unicode="&#x2da;" horiz-adv-x="520" d="M39 1313q0 96 65.5 161.5t161.5 65.5t163 -66t67 -161q0 -97 -67 -162.5t-163 -65.5q-97 0 -162 65t-65 163zM166 1313q0 -45 29 -75t73 -30q43 0 72 30.5t29 74.5q0 43 -29 72.5t-72 29.5q-44 0 -73 -29.5t-29 -72.5z" />
<glyph unicode="&#x2db;" horiz-adv-x="950" d="M422 -244q0 41 17 83t41.5 73t49 56.5t41.5 38.5l17 13l174 -18q-15 -13 -36.5 -34t-58 -71t-36.5 -81q0 -35 20.5 -56.5t53.5 -21.5l92 10l20 -162q-108 -20 -188 -20q-91 0 -149 51t-58 139z" />
<glyph unicode="&#x2dc;" horiz-adv-x="520" d="M-51 1364q4 5 12 12.5t31 27.5t46 35t54 27.5t58 12.5q45 0 144.5 -41t125.5 -41q22 0 60 18.5t66 36.5l27 18l50 -131q-12 -13 -31.5 -32.5t-71.5 -51.5t-94 -32q-45 0 -143.5 41t-130.5 41q-24 0 -62.5 -17.5t-65.5 -35.5l-26 -17z" />
<glyph unicode="&#x2dd;" horiz-adv-x="520" d="M-102 1282l264 342l174 -115l-277 -340zM305 1282l264 344l174 -117l-276 -340z" />
<glyph unicode="&#x3c0;" d="M41 807v182q127 35 299 35h500q58 0 119 7t93 13l31 7v-185q-53 -22 -172 -28v-523q0 -80 32 -110.5t126 -30.5v-188q-85 0 -142.5 5.5t-101.5 21t-69 37.5t-40.5 61.5t-20.5 86t-5 117.5v519h-237l-56 -834h-223l64 834q-41 0 -90 -7t-78 -13z" />
<glyph unicode="&#x2000;" horiz-adv-x="982" />
<glyph unicode="&#x2001;" horiz-adv-x="1964" />
<glyph unicode="&#x2002;" horiz-adv-x="982" />
<glyph unicode="&#x2003;" horiz-adv-x="1964" />
<glyph unicode="&#x2004;" horiz-adv-x="654" />
<glyph unicode="&#x2005;" horiz-adv-x="491" />
<glyph unicode="&#x2006;" horiz-adv-x="327" />
<glyph unicode="&#x2007;" horiz-adv-x="327" />
<glyph unicode="&#x2008;" horiz-adv-x="245" />
<glyph unicode="&#x2009;" horiz-adv-x="392" />
<glyph unicode="&#x200a;" horiz-adv-x="109" />
<glyph unicode="&#x2010;" horiz-adv-x="862" d="M125 451v202h612v-202h-612z" />
<glyph unicode="&#x2011;" horiz-adv-x="862" d="M125 451v202h612v-202h-612z" />
<glyph unicode="&#x2012;" horiz-adv-x="862" d="M125 451v202h612v-202h-612z" />
<glyph unicode="&#x2013;" horiz-adv-x="1273" d="M125 451v190h1024v-190h-1024z" />
<glyph unicode="&#x2014;" horiz-adv-x="2297" d="M125 451v190h2048v-190h-2048z" />
<glyph unicode="&#x2018;" horiz-adv-x="495" d="M86 934l156 481h170l-93 -481h-233z" />
<glyph unicode="&#x2019;" horiz-adv-x="487" d="M96 936l92 481h234l-156 -481h-170z" />
<glyph unicode="&#x201a;" horiz-adv-x="489" d="M117 -117l45 232h110l-73 -232h-82z" />
<glyph unicode="&#x201c;" horiz-adv-x="845" d="M86 934l156 481h170l-93 -481h-233zM436 934l156 481h170l-92 -481h-234z" />
<glyph unicode="&#x201d;" horiz-adv-x="843" d="M96 938l92 481h234l-156 -481h-170zM451 938l92 481h233l-155 -481h-170z" />
<glyph unicode="&#x201e;" horiz-adv-x="806" d="M12 -246l156 482h170l-92 -482h-234zM369 -246l155 482h170l-92 -482h-233z" />
<glyph unicode="&#x2020;" horiz-adv-x="980" d="M63 834v190h316v379h223v-379h318v-190h-318l-16 -984h-191l-16 984h-316z" />
<glyph unicode="&#x2021;" horiz-adv-x="1056" d="M100 229v191h318v414h-318v190h318v379h221v-379h315v-190h-315v-414h317v-191h-317v-379h-221v379h-318z" />
<glyph unicode="&#x2022;" horiz-adv-x="942" d="M215 211v577h512v-577h-512z" />
<glyph unicode="&#x2026;" horiz-adv-x="1531" d="M125 0v295h240v-295h-240zM647 0v295h240v-295h-240zM1167 0v295h240v-295h-240z" />
<glyph unicode="&#x202f;" horiz-adv-x="392" />
<glyph unicode="&#x2030;" horiz-adv-x="1722" d="M68 1083q0 -147 61.5 -221t173.5 -74q114 0 176 74t62 221q0 146 -61.5 218.5t-176.5 72.5q-235 0 -235 -291zM236 1083q0 83 14.5 118.5t52.5 35.5q40 0 55 -35.5t15 -118.5t-15 -119t-55 -36q-38 0 -52.5 36.5t-14.5 118.5zM309 -12l455 1427l127 -43l-455 -1425z M659 272q0 146 61 218.5t175 72.5q115 0 176.5 -73t61.5 -218q0 -147 -62 -221t-176 -74t-175 74t-61 221zM825 272q0 -82 15.5 -119.5t54.5 -37.5t54.5 37.5t15.5 119.5q0 80 -15.5 116t-54.5 36t-54.5 -36t-15.5 -116zM1186 272q0 146 60.5 218.5t174.5 72.5 q115 0 176.5 -73t61.5 -218q0 -147 -62 -221t-176 -74q-112 0 -173.5 74t-61.5 221zM1352 272q0 -82 15 -119.5t54 -37.5q40 0 55 37t15 120q0 81 -15 116.5t-55 35.5q-39 0 -54 -35.5t-15 -116.5z" />
<glyph unicode="&#x2039;" horiz-adv-x="636" d="M86 418v166l428 317v-225l-238 -170l238 -193v-227z" />
<glyph unicode="&#x203a;" horiz-adv-x="636" d="M121 100v228l237 192l-237 170v225l428 -317v-164z" />
<glyph unicode="&#x2044;" horiz-adv-x="0" d="M-459 59l805 1293l96 -62l-804 -1296z" />
<glyph unicode="&#x205f;" horiz-adv-x="491" />
<glyph unicode="&#x2070;" horiz-adv-x="573" d="M31 1296q0 188 63 265t193 77t192 -77.5t62 -264.5q0 -127 -30.5 -203t-84 -105.5t-139.5 -29.5q-130 0 -193 75.5t-63 262.5zM217 1296q0 -107 16.5 -142.5t53.5 -35.5q38 0 53.5 35t15.5 143q0 107 -15.5 145t-53.5 38q-25 0 -39.5 -14t-22.5 -54.5t-8 -114.5z" />
<glyph unicode="&#x2074;" horiz-adv-x="573" d="M37 1063v149l106 406h201l-125 -393h96l21 182h158v-182h36v-162h-36v-84h-179v84h-278z" />
<glyph unicode="&#x2075;" horiz-adv-x="573" d="M63 991l13 146q114 -19 192 -19q72 0 72 62q0 57 -51 57q-16 0 -35.5 -4t-31.5 -8l-11 -4l-133 16l20 381h408v-154h-264l-9 -94q58 21 103 21q92 0 141 -47.5t49 -155.5q0 -225 -231 -225q-45 0 -103 7t-94 14z" />
<glyph unicode="&#x2076;" horiz-adv-x="573" d="M43 1280q0 183 62 270.5t208 87.5q33 0 82.5 -5.5t82.5 -10.5l34 -6l-8 -148q-124 13 -185 13q-92 0 -92 -97q0 -1 15 3.5t39.5 10t42.5 5.5q110 0 160.5 -53t50.5 -160q0 -108 -65.5 -170t-170.5 -62q-256 0 -256 322zM225 1231q3 -117 68 -117q30 0 45.5 20t15.5 54 q0 67 -59 67q-18 0 -35 -5.5t-26 -11t-9 -7.5z" />
<glyph unicode="&#x2077;" horiz-adv-x="573" d="M57 1440v178h445v-186l-203 -471l-201 32l197 414v33h-238z" />
<glyph unicode="&#x2078;" horiz-adv-x="573" d="M33 1163q0 63 28 102.5t52 49.5q-22 7 -46 43.5t-24 101.5q0 178 244 178q243 0 243 -178q0 -62 -23.5 -101.5t-45.5 -45.5q26 -7 53 -43.5t27 -102.5q0 -113 -64 -161t-190 -48q-127 0 -190.5 46.5t-63.5 158.5zM217 1167q0 -63 70 -63q69 0 69 65q0 49 -49 74h-41 q-49 -27 -49 -76zM221 1438q0 -45 45 -68h41q45 22 45 68q0 55 -65 55q-66 0 -66 -55z" />
<glyph unicode="&#x2079;" horiz-adv-x="573" d="M41 1407q0 110 63.5 170.5t171.5 60.5q133 0 194.5 -84t61.5 -254q0 -177 -61 -259.5t-201 -82.5q-41 0 -92.5 6t-83.5 12l-31 7l11 150q98 -15 174 -15q93 0 96 92q-51 -16 -96 -16q-101 0 -154 55t-53 158zM221 1409q0 -32 17 -53t43 -21q13 0 30 4.5t28 9.5l11 5 q0 127 -67 127q-29 0 -45.5 -19t-16.5 -53z" />
<glyph unicode="&#x20ac;" d="M57 414v172h117q-2 29 -2 90v72h-115v172h127q28 240 140.5 347t355.5 107q153 0 387 -49l-8 -178q-67 12 -172 21.5t-178 9.5q-139 0 -206 -58t-89 -200h528v-172h-543v-72v-90h543v-172h-528q23 -131 91 -185.5t210 -54.5q141 0 344 29l6 -180q-212 -46 -385 -46 q-238 0 -351 106t-143 331h-129z" />
<glyph unicode="&#x2122;" horiz-adv-x="1368" d="M174 1169v138h410v-138h-107v-489h-151v489h-152zM641 678v629h182l107 -369l114 369h181v-629h-142v401l-98 -364h-102l-101 364v-401h-141z" />
<glyph unicode="&#x2126;" d="M98 780q0 312 107.5 453t367.5 141t368 -141t108 -453q0 -92 -21 -188.5t-51.5 -168.5t-60.5 -130.5t-51 -89.5l-21 -31h203v-190h-416v165q7 13 19.5 37t44 93.5t55.5 136t43.5 153.5t19.5 156q0 102 -5 169t-19.5 125.5t-41 90.5t-69 50t-105.5 18q-62 0 -105 -18 t-69.5 -50t-40.5 -90.5t-19 -125.5t-5 -169q0 -69 18.5 -154t45.5 -156.5t54 -133t46 -97.5l18 -35v-165h-416v190h203q-8 11 -22 32t-49.5 87t-62.5 133.5t-49 165.5t-22 190z" />
<glyph unicode="&#x2206;" d="M98 0v172l285 1180h381l285 -1184v-168h-951zM322 190h501l-223 973h-53z" />
<glyph unicode="&#x25fc;" horiz-adv-x="1024" d="M0 0v1024h1024v-1024h-1024z" />
<glyph horiz-adv-x="882" d="M61 309q0 137 34.5 208.5t144.5 160.5q98 76 132 123.5t34 103.5v68h180q5 -7 13.5 -20.5t22 -55t13.5 -84.5q0 -52 -39 -102.5t-127 -124.5q-113 -92 -145.5 -138.5t-32.5 -115.5q0 -79 50.5 -117.5t166.5 -38.5q56 0 132.5 10t124.5 20l48 9l12 -170q-21 -8 -57 -19 t-128 -30t-161 -19q-216 0 -317 78.5t-101 253.5zM383 1116v287h238v-287h-238z" />
<glyph horiz-adv-x="1277" d="M127 512v190h1024v-190h-1024z" />
<glyph horiz-adv-x="2301" d="M127 512v190h2048v-190h-2048z" />
<glyph horiz-adv-x="544" d="M154 2l20 909h197l20 -909h-237zM154 1118v287h239v-287h-239z" />
<glyph horiz-adv-x="591" d="M88 678q0 131 23.5 274t57.5 253.5t67.5 202t57.5 140.5l23 49h211q-8 -21 -21 -58.5t-46.5 -148.5t-59 -217t-46.5 -244.5t-21 -250.5t20 -243.5t48.5 -238.5t57 -198t48.5 -142l20 -51h-211q-9 16 -24.5 46.5t-55 125.5t-69.5 192t-55 237.5t-25 271.5z" />
<glyph horiz-adv-x="591" d="M63 -184q8 21 21 58.5t46.5 148.5t59.5 217t47 244.5t21 250.5t-20 243.5t-48.5 238.5t-57.5 198t-49 142l-20 51h211q9 -16 24.5 -46.5t55.5 -125.5t70 -192t55 -237.5t25 -271.5t-23.5 -274t-57.5 -253.5t-68 -202t-57 -140.5l-24 -49h-211z" />
<glyph horiz-adv-x="704" d="M150 -190v1785h477v-198h-252v-1389h252v-198h-477z" />
<glyph horiz-adv-x="704" d="M78 8h252v1389h-252v198h477v-1785h-477v198z" />
<glyph horiz-adv-x="731" d="M39 614v174q117 27 171 77.5t54 129.5q0 26 -7 123t-7 137q0 192 91 271.5t312 87.5l2 -189q-109 -7 -148.5 -52t-39.5 -134q0 -35 7 -131.5t7 -124.5q0 -130 -43.5 -187.5t-179.5 -93.5q70 -18 113.5 -42t68 -60t33 -79t8.5 -109q0 -30 -7 -116.5t-7 -123.5 q0 -89 38 -136t146 -54v-189q-219 7 -310 88.5t-91 265.5q0 44 7 135t7 113q0 79 -54.5 133t-170.5 86z" />
<glyph horiz-adv-x="733" d="M76 -25q109 7 148.5 52.5t39.5 134.5q0 35 -7 131.5t-7 124.5q0 130 43.5 187t179.5 93q-70 18 -113.5 42t-68 60.5t-33 79.5t-8.5 109q0 30 7 116.5t7 123.5q0 89 -38 136t-146 54v189q219 -7 310 -89t91 -266q0 -44 -7 -134.5t-7 -112.5q0 -158 225 -220v-174 q-117 -28 -171 -77.5t-54 -128.5q0 -26 7 -123.5t7 -137.5q0 -192 -90.5 -271t-312.5 -87z" />
</font>
</defs>
</svg>
